<?xml version="1.0" encoding="UTF-8"?>
<svg version="1.1" xmlns="http://www.w3.org/2000/svg" width="193" height="262">
<path d="M0 0 C3.0600911 2.26092682 6.04528203 4.60339543 9 7 C10.14626322 6.02133662 11.29199788 5.04205413 12.4375 4.0625 C13.07558594 3.51722656 13.71367188 2.97195312 14.37109375 2.41015625 C15.26991149 1.63204305 16.15936528 0.84063472 17 0 C18.99958364 -0.04080783 21.00045254 -0.04254356 23 0 C23.56638908 4.81430721 21.82561627 7.20307814 19 11 C21.97 11 24.94 11 28 11 C28.495 11.99 28.495 11.99 29 13 C25.49043351 17.38695812 22.26460034 17.8122548 17 19 C17.70797178 21.59087543 18.43998773 24.17052481 19.1875 26.75 C19.48237305 27.84441406 19.48237305 27.84441406 19.78320312 28.9609375 C21.22502292 33.84094295 22.69774995 36.0272884 27 39 C31.29743306 44.76361611 32.3655137 49.93340172 32 57 C31.443125 58.5159375 31.443125 58.5159375 30.875 60.0625 C29.78252621 63.73009058 30.51965368 65.54585858 32 69 C33.65 67.68 35.3 66.36 37 65 C37.33 66.65 37.66 68.3 38 70 C38.33 69.34 38.66 68.68 39 68 C40.98 68.495 40.98 68.495 43 69 C42.401875 70.010625 41.80375 71.02125 41.1875 72.0625 C39.72651725 74.59349828 38.51055105 77.09562607 37.4375 79.8125 C36 83 36 83 33 85 C33.165 86.27875 33.33 87.5575 33.5 88.875 C34.00197427 94.02023622 34.17898823 99.14639402 34.25 104.3125 C34.2819043 105.47724854 34.2819043 105.47724854 34.31445312 106.66552734 C34.34214534 111.24364459 34.03421146 114.31033994 31 118 C30.34 118 29.68 118 29 118 C29 118.66 29 119.32 29 120 C22.06828537 122.26613747 16.19201969 121.88701576 9 121 C8.81824219 121.54269531 8.63648437 122.08539063 8.44921875 122.64453125 C8.19785156 123.35996094 7.94648437 124.07539063 7.6875 124.8125 C7.44386719 125.52019531 7.20023437 126.22789062 6.94921875 126.95703125 C5.86780757 129.28451293 5.07317662 130.47600924 3 132 C-0.1875 132.6875 -0.1875 132.6875 -3 133 C-3.05607422 134.46373047 -3.05607422 134.46373047 -3.11328125 135.95703125 C-3.17902344 137.22933594 -3.24476562 138.50164062 -3.3125 139.8125 C-3.37050781 141.07707031 -3.42851563 142.34164062 -3.48828125 143.64453125 C-4 147 -4 147 -5.54296875 148.94921875 C-6.02378906 149.29597656 -6.50460938 149.64273438 -7 150 C-6.52949219 150.44730469 -6.05898437 150.89460937 -5.57421875 151.35546875 C1.27143822 158.00270088 1.27143822 158.00270088 3 162 C2.81308594 162.62390625 2.62617187 163.2478125 2.43359375 163.890625 C1.8547416 166.70666247 2.6089537 167.61325226 4.0625 170.0625 C13.05181236 187.16472937 18.9450823 210.7677238 15 230 C14.34 230 13.68 230 13 230 C13 230.66 13 231.32 13 232 C11.35 231.67 9.7 231.34 8 231 C7.87625 230.360625 7.7525 229.72125 7.625 229.0625 C7.41875 228.381875 7.2125 227.70125 7 227 C6.34 226.67 5.68 226.34 5 226 C4.10328144 223.29504698 3.30449029 220.62243155 2.5625 217.875 C1.37440229 213.52738694 0.20861914 209.30595994 -1.66015625 205.1953125 C-3 202 -3 202 -3 198 C-3.66 198 -4.32 198 -5 198 C-5.24234375 197.443125 -5.4846875 196.88625 -5.734375 196.3125 C-8.46268881 190.10033933 -11.21805582 183.92747973 -14.75 178.125 C-16 176 -16 176 -16 174 C-17.175625 174.0825 -18.35125 174.165 -19.5625 174.25 C-21.75390625 174.01953125 -21.75390625 174.01953125 -24 173 C-26.91040099 169.18655871 -28.82027933 165.3140305 -31 161 C-31.66 165.62 -32.32 170.24 -33 175 C-36.3 175.33 -39.6 175.66 -43 176 C-42.95746094 177.16273438 -42.91492187 178.32546875 -42.87109375 179.5234375 C-42.8776579 183.79013735 -43.73119355 187.58643317 -45.0625 191.625 C-45.28292969 192.31013672 -45.50335938 192.99527344 -45.73046875 193.70117188 C-49.08781795 203.70865508 -53.94800301 213.35429001 -60 222 C-60.66 222 -61.32 222 -62 222 C-62.25265625 222.59296875 -62.5053125 223.1859375 -62.765625 223.796875 C-64.89139813 227.5909764 -68.265142 229.87272466 -72 232 C-75.4375 232.4375 -75.4375 232.4375 -78 232 C-79 231 -79 231 -79.0625 227.375 C-78.50461988 222.75256472 -76.66082029 219.22722048 -74.375 215.25 C-69.106317 206.05739576 -65.97432339 196.1348598 -63 186 C-62.80631836 185.3925293 -62.61263672 184.78505859 -62.41308594 184.15917969 C-61.82340422 181.07694261 -61.96596068 178.13119134 -62.04296875 174.99609375 C-62.06538445 173.60092611 -62.08683681 172.20574273 -62.10742188 170.81054688 C-62.14423131 168.63391482 -62.18693279 166.45810871 -62.24682617 164.28198242 C-62.46319169 156.01757543 -62.28704318 148.87190928 -58.88061523 141.14575195 C-57.73585452 138.35636966 -57.86434924 135.98431673 -58 133 C-57.46323144 130.60894005 -56.74810191 128.33781845 -56 126 C-55.34 126 -54.68 126 -54 126 C-53.87625 125.41734375 -53.7525 124.8346875 -53.625 124.234375 C-50.38271402 111.34628822 -40.2286378 97.31780882 -29 90 C-28.34 90 -27.68 90 -27 90 C-27 89.34 -27 88.68 -27 88 C-24.525 87.505 -24.525 87.505 -22 87 C-22 86.34 -22 85.68 -22 85 C-22.60328125 85.144375 -23.2065625 85.28875 -23.828125 85.4375 C-24.62734375 85.623125 -25.4265625 85.80875 -26.25 86 C-27.03890625 86.185625 -27.8278125 86.37125 -28.640625 86.5625 C-31 87 -31 87 -35 87 C-35 86.34 -35 85.68 -35 85 C-37.97 84.505 -37.97 84.505 -41 84 C-41.83144531 85.0828125 -41.83144531 85.0828125 -42.6796875 86.1875 C-43.40414062 87.115625 -44.12859375 88.04375 -44.875 89 C-45.59429687 89.928125 -46.31359375 90.85625 -47.0546875 91.8125 C-48.01761719 92.8953125 -48.01761719 92.8953125 -49 94 C-49.66 94 -50.32 94 -51 94 C-51 94.66 -51 95.32 -51 96 C-55.44414215 100.35179634 -59.65292814 102.87305856 -66 103 C-68 102 -68 102 -68.72265625 100.2578125 C-69.61184029 93.019103 -64.12967069 85.11798723 -60.3671875 79.2890625 C-58.90755343 76.84521803 -57.7324324 74.75970066 -57 72 C-57.92267804 69.79629145 -57.92267804 69.79629145 -59.625 67.8125 C-67.0058751 57.66168551 -69.43677704 46.00845824 -67.65625 33.60546875 C-66.66716232 28.76718151 -65.09102407 24.46718779 -63 20 C-62.34 20 -61.68 20 -61 20 C-60.731875 19.2575 -60.46375 18.515 -60.1875 17.75 C-59.04723249 15.10938051 -57.90619694 13.14447156 -56 11 C-55.34 11 -54.68 11 -54 11 C-53.77957031 10.4328125 -53.55914062 9.865625 -53.33203125 9.28125 C-49.36230591 2.4826588 -40.69546207 -2.14028539 -33.4375 -4.5625 C-21.64728463 -7.62964433 -10.53484572 -6.2760783 0 0 Z M10 82 C10.33 82.66 10.66 83.32 11 84 C12.32 83.34 13.64 82.68 15 82 C14.55333984 82.84884766 14.55333984 82.84884766 14.09765625 83.71484375 C13.01456153 85.96968508 12.20618569 88.18400133 11.4375 90.5625 C11.18871094 91.32691406 10.93992187 92.09132813 10.68359375 92.87890625 C10.45800781 93.57886719 10.23242188 94.27882813 10 95 C9.67 95.99 9.34 96.98 9 98 C10.28965176 99.37562854 11.62689293 100.70766393 13 102 C13.66 102 14.32 102 15 102 C15 102.66 15 103.32 15 104 C17.31 104.33 19.62 104.66 22 105 C25.81896593 99.27155111 26.04793568 91.70678832 25 85 C22.22572092 82.34289975 22.22572092 82.34289975 19 81 C18.67 80.01 18.34 79.02 18 78 C14.71841516 78 12.62118892 80.17656423 10 82 Z " fill="#EDCEB1" transform="translate(91,18)"/>
<path d="M0 0 C3.0600911 2.26092682 6.04528203 4.60339543 9 7 C10.14626322 6.02133662 11.29199788 5.04205413 12.4375 4.0625 C13.07558594 3.51722656 13.71367188 2.97195312 14.37109375 2.41015625 C15.26991149 1.63204305 16.15936528 0.84063472 17 0 C18.99958364 -0.04080783 21.00045254 -0.04254356 23 0 C23.56638908 4.81430721 21.82561627 7.20307814 19 11 C21.97 11 24.94 11 28 11 C28.495 11.99 28.495 11.99 29 13 C25.51279384 17.3590077 22.27239085 17.94552183 17 19 C17.99 25.435 17.99 25.435 19 32 C17.02 31.34 15.04 30.68 13 30 C12.67 31.65 12.34 33.3 12 35 C11.67 35 11.34 35 11 35 C10.79913557 31.28400809 10.8480563 30.22791555 13 27 C10.70572021 24.47629223 9.23475448 23.61737724 6 22 C6 24.97 6 27.94 6 31 C4.68 31.33 3.36 31.66 2 32 C0.68 30.02 -0.64 28.04 -2 26 C-2.13277344 26.69867188 -2.26554687 27.39734375 -2.40234375 28.1171875 C-2.57894531 29.02726562 -2.75554687 29.93734375 -2.9375 30.875 C-3.11152344 31.77992187 -3.28554687 32.68484375 -3.46484375 33.6171875 C-4 36 -4 36 -5 38 C-2.69 38 -0.38 38 2 38 C2.495 37.01 2.495 37.01 3 36 C4.04005702 39.38018531 4.08004482 42.4780279 4 46 C3.34 46 2.68 46 2 46 C2.495 48.475 2.495 48.475 3 51 C3.66 51 4.32 51 5 51 C4.67 52.32 4.34 53.64 4 55 C2.515 54.505 2.515 54.505 1 54 C0.05078125 52.00390625 0.05078125 52.00390625 -0.6875 49.5625 C-0.93886719 48.75941406 -1.19023438 47.95632812 -1.44921875 47.12890625 C-2 45 -2 45 -2 43 C-3.32 43.99 -4.64 44.98 -6 46 C-6 44.35 -6 42.7 -6 41 C-8.64 41 -11.28 41 -14 41 C-14.66 42.32 -15.32 43.64 -16 45 C-17.32 44.34 -18.64 43.68 -20 43 C-20.45375 44.093125 -20.9075 45.18625 -21.375 46.3125 C-22.41642091 48.82137765 -23.46478044 50.69717067 -25 53 C-26.32 53 -27.64 53 -29 53 C-28.83628906 53.53109375 -28.67257813 54.0621875 -28.50390625 54.609375 C-27.88643623 57.53876764 -27.90498075 60.25822936 -27.9375 63.25 C-27.94652344 64.32765625 -27.95554688 65.4053125 -27.96484375 66.515625 C-27.97644531 67.33546875 -27.98804688 68.1553125 -28 69 C-28.87398437 68.53980469 -28.87398437 68.53980469 -29.765625 68.0703125 C-32.74322053 66.64398178 -35.81840111 65.85658432 -39 65 C-39.05437607 66.58294782 -39.09296271 68.16644256 -39.125 69.75 C-39.14820312 70.63171875 -39.17140625 71.5134375 -39.1953125 72.421875 C-38.98378017 75.21410172 -38.63451693 76.72872341 -37 79 C-34.89895949 80.01563242 -34.89895949 80.01563242 -32.5 80.5625 C-28.21100917 81.68348624 -28.21100917 81.68348624 -26 85 C-27.74991334 85.02715383 -29.49994945 85.04646551 -31.25 85.0625 C-32.22453125 85.07410156 -33.1990625 85.08570312 -34.203125 85.09765625 C-36.65758678 85.01195577 -38.66168914 84.70706066 -41 84 C-41.83144531 85.0828125 -41.83144531 85.0828125 -42.6796875 86.1875 C-43.40414062 87.115625 -44.12859375 88.04375 -44.875 89 C-45.59429687 89.928125 -46.31359375 90.85625 -47.0546875 91.8125 C-48.01761719 92.8953125 -48.01761719 92.8953125 -49 94 C-49.66 94 -50.32 94 -51 94 C-51 94.66 -51 95.32 -51 96 C-55.44414215 100.35179634 -59.65292814 102.87305856 -66 103 C-68 102 -68 102 -68.72265625 100.2578125 C-69.61184029 93.019103 -64.12967069 85.11798723 -60.3671875 79.2890625 C-58.90755343 76.84521803 -57.7324324 74.75970066 -57 72 C-57.92267804 69.79629145 -57.92267804 69.79629145 -59.625 67.8125 C-67.0058751 57.66168551 -69.43677704 46.00845824 -67.65625 33.60546875 C-66.66716232 28.76718151 -65.09102407 24.46718779 -63 20 C-62.34 20 -61.68 20 -61 20 C-60.731875 19.2575 -60.46375 18.515 -60.1875 17.75 C-59.04723249 15.10938051 -57.90619694 13.14447156 -56 11 C-55.34 11 -54.68 11 -54 11 C-53.77957031 10.4328125 -53.55914062 9.865625 -53.33203125 9.28125 C-49.36230591 2.4826588 -40.69546207 -2.14028539 -33.4375 -4.5625 C-21.64728463 -7.62964433 -10.53484572 -6.2760783 0 0 Z " fill="#7B4D20" transform="translate(91,18)"/>
<path d="M0 0 C0.66 0.33 1.32 0.66 2 1 C2 1.66 2 2.32 2 3 C2.639375 3.226875 3.27875 3.45375 3.9375 3.6875 C6.52576056 4.79675453 8.77043156 6.01468666 11.1875 7.4375 C21.6937842 13.29744069 32.0990786 14.64236469 43.75 11.5 C47.14401842 10.78882562 48.38218935 10.61437978 51.359375 12.47265625 C53.47045074 14.53365172 55.251041 16.62671823 57 19 C57.680625 19.9075 58.36125 20.815 59.0625 21.75 C60 24 60 24 59.4296875 25.88671875 C58.85672198 28.70466737 59.60845631 29.61241415 61.0625 32.0625 C70.05181236 49.16472937 75.9450823 72.7677238 72 92 C71.34 92 70.68 92 70 92 C70 92.66 70 93.32 70 94 C68.35 93.67 66.7 93.34 65 93 C64.87625 92.360625 64.7525 91.72125 64.625 91.0625 C64.41875 90.381875 64.2125 89.70125 64 89 C63.34 88.67 62.68 88.34 62 88 C61.10328144 85.29504698 60.30449029 82.62243155 59.5625 79.875 C58.37440229 75.52738694 57.20861914 71.30595994 55.33984375 67.1953125 C54 64 54 64 54 60 C53.34 60 52.68 60 52 60 C51.75765625 59.443125 51.5153125 58.88625 51.265625 58.3125 C48.53731119 52.10033933 45.78194418 45.92747973 42.25 40.125 C41 38 41 38 41 36 C39.824375 36.0825 38.64875 36.165 37.4375 36.25 C35.24609375 36.01953125 35.24609375 36.01953125 33 35 C30.08959901 31.18655871 28.17972067 27.3140305 26 23 C25.34 27.62 24.68 32.24 24 37 C19.05 37.495 19.05 37.495 14 38 C14.04253906 39.16273438 14.08507813 40.32546875 14.12890625 41.5234375 C14.1223421 45.79013735 13.26880645 49.58643317 11.9375 53.625 C11.60685547 54.65270508 11.60685547 54.65270508 11.26953125 55.70117188 C7.91218205 65.70865508 3.05199699 75.35429001 -3 84 C-3.66 84 -4.32 84 -5 84 C-5.25265625 84.59296875 -5.5053125 85.1859375 -5.765625 85.796875 C-7.89139813 89.5909764 -11.265142 91.87272466 -15 94 C-18.4375 94.4375 -18.4375 94.4375 -21 94 C-22 93 -22 93 -22.0625 89.375 C-21.50461988 84.75256472 -19.66082029 81.22722048 -17.375 77.25 C-12.106317 68.05739576 -8.97432339 58.1348598 -6 48 C-5.80631836 47.3925293 -5.61263672 46.78505859 -5.41308594 46.15917969 C-4.82340422 43.07694261 -4.96596068 40.13119134 -5.04296875 36.99609375 C-5.06538445 35.60092611 -5.08683681 34.20574273 -5.10742188 32.81054688 C-5.14423131 30.63391482 -5.18693279 28.45810871 -5.24682617 26.28198242 C-5.48378968 17.23080434 -5.1606984 9.29510985 -1 1 C-0.67 0.67 -0.34 0.34 0 0 Z " fill="#398B31" transform="translate(34,156)"/>
<path d="M0 0 C1.09731445 0.15662109 1.09731445 0.15662109 2.21679688 0.31640625 C4.0006207 0.57290379 5.78188297 0.84711259 7.5625 1.125 C7.830625 1.929375 8.09875 2.73375 8.375 3.5625 C8.9628125 4.8309375 8.9628125 4.8309375 9.5625 6.125 C10.5525 6.455 11.5425 6.785 12.5625 7.125 C12.87711385 14.22129025 13.00822039 19.80784595 9.5625 26.125 C8.2425 25.795 6.9225 25.465 5.5625 25.125 C5.0675 26.61 5.0675 26.61 4.5625 28.125 C3.2425 26.805 1.9225 25.485 0.5625 24.125 C-2.92420834 25.2344072 -6.21234237 26.38837666 -9.4375 28.125 C-9.4375 29.115 -9.4375 30.105 -9.4375 31.125 C-10.0975 31.125 -10.7575 31.125 -11.4375 31.125 C-11.4375 32.445 -11.4375 33.765 -11.4375 35.125 C-6.27358913 39.45294989 0.22958947 42.01402982 6.5625 44.125 C6.75680855 46.7496601 6.94323238 49.37446765 7.125 52 C7.20911133 53.11955078 7.20911133 53.11955078 7.29492188 54.26171875 C7.67578125 59.8984375 7.67578125 59.8984375 6.5625 62.125 C-8.16439012 66.70483173 -20.99167273 66.42788758 -34.75390625 59.44140625 C-44.03622186 54.24733073 -44.03622186 54.24733073 -46.4375 50.125 C-46.1875 47.1875 -46.1875 47.1875 -45.4375 44.125 C-45.1590625 42.701875 -45.1590625 42.701875 -44.875 41.25 C-44.730625 40.54875 -44.58625 39.8475 -44.4375 39.125 C-43.7775 39.125 -43.1175 39.125 -42.4375 39.125 C-42.251875 38.25101563 -42.251875 38.25101563 -42.0625 37.359375 C-38.82021402 24.47128822 -28.6661378 10.44280882 -17.4375 3.125 C-16.7775 3.125 -16.1175 3.125 -15.4375 3.125 C-15.4375 2.465 -15.4375 1.805 -15.4375 1.125 C-9.86585834 -0.85179796 -5.79704451 -0.92285979 0 0 Z " fill="#F9BE09" transform="translate(79.4375,104.875)"/>
<path d="M0 0 C2.38579702 1.8167824 4.72961714 3.67075694 7.046875 5.57421875 C8.86620055 7.19653717 8.86620055 7.19653717 11 7 C11 7.66 11 8.32 11 9 C10.21625 9.0825 9.4325 9.165 8.625 9.25 C5.85250896 9.72806339 5.85250896 9.72806339 4.6875 12.0625 C4.460625 12.701875 4.23375 13.34125 4 14 C2.9275 13.855625 1.855 13.71125 0.75 13.5625 C-10.2581931 13.63988624 -21.55005931 24.46816684 -29 32 C-36.1688665 39.79444517 -36.1688665 39.79444517 -41 49 C-41.66 49 -42.32 49 -43 49 C-43 49.66 -43 50.32 -43 51 C-43.66 51 -44.32 51 -45 51 C-45.33 52.32 -45.66 53.64 -46 55 C-46.66 54.67 -47.32 54.34 -48 54 C-47.67 50.7 -47.34 47.4 -47 44 C-47.66 44 -48.32 44 -49 44 C-49 43.34 -49 42.68 -49 42 C-49.66 42 -50.32 42 -51 42 C-51 41.34 -51 40.68 -51 40 C-51.66 40 -52.32 40 -53 40 C-57.21260627 31.04821168 -56.78473216 21.59293537 -55 12 C-54.34 12 -53.68 12 -53 12 C-52.91492187 10.90365234 -52.91492187 10.90365234 -52.828125 9.78515625 C-51.15195648 4.14785365 -44.93779495 0.83354966 -40 -2 C-26.53179549 -7.99295254 -12.74006189 -7.58982411 0 0 Z " fill="#6CA92C" transform="translate(91,18)"/>
<path d="M0 0 C0.99 0.33 1.98 0.66 3 1 C3.29341888 6.67276511 3.00559652 9.99067246 0 15 C-0.66 15 -1.32 15 -2 15 C-2.144375 15.639375 -2.28875 16.27875 -2.4375 16.9375 C-3 19 -3 19 -4 20 C-3.01 20.33 -2.02 20.66 -1 21 C-1.2990625 21.56589844 -1.598125 22.13179687 -1.90625 22.71484375 C-3.32812077 25.68553804 -4.24439997 28.73874555 -5.21875 31.87890625 C-6 34 -6 34 -8 37 C-6.68 37.66 -5.36 38.32 -4 39 C-4 39.66 -4 40.32 -4 41 C-3.34 41 -2.68 41 -2 41 C-2 41.66 -2 42.32 -2 43 C0.31 43 2.62 43 5 43 C5.66 40.69 6.32 38.38 7 36 C7.66 36 8.32 36 9 36 C9 32.37 9 28.74 9 25 C10.65 24.67 12.3 24.34 14 24 C14.25 29.625 14.25 29.625 12 33 C11.79563859 35.41535255 11.79563859 35.41535255 11.9375 38 C12.04476882 41.1341151 12.00546443 42.98360672 11 46 C11.33 46 11.66 46 12 46 C12 50.29 12 54.58 12 59 C5.06828537 61.26613747 -0.80798031 60.88701576 -8 60 C-8.18175781 60.54269531 -8.36351562 61.08539063 -8.55078125 61.64453125 C-8.80214844 62.35996094 -9.05351563 63.07539063 -9.3125 63.8125 C-9.55613281 64.52019531 -9.79976562 65.22789062 -10.05078125 65.95703125 C-11.09331483 68.20083808 -12.07612964 69.45335912 -14 71 C-17.1875 71.6875 -17.1875 71.6875 -20 72 C-20.33 75.3 -20.66 78.6 -21 82 C-21.33 82 -21.66 82 -22 82 C-22 78.04 -22 74.08 -22 70 C-23.2065625 69.9071875 -23.2065625 69.9071875 -24.4375 69.8125 C-30.71334496 68.38116694 -35.94789911 64.90909164 -41 61 C-40.67 59.68 -40.34 58.36 -40 57 C-39.34 57 -38.68 57 -38 57 C-38 56.01 -38 55.02 -38 54 C-36.35546875 52.578125 -36.35546875 52.578125 -34.1875 51.25 C-33.47980469 50.80140625 -32.77210937 50.3528125 -32.04296875 49.890625 C-30 49 -30 49 -27 50 C-27 50.66 -27 51.32 -27 52 C-26.01 52.33 -25.02 52.66 -24 53 C-23.67 52.34 -23.34 51.68 -23 51 C-21.68 51 -20.36 51 -19 51 C-16.57188075 45.17251381 -16.38272093 39.2242509 -16 33 C-17.32 32.67 -18.64 32.34 -20 32 C-20.495 29.525 -20.495 29.525 -21 27 C-19.68 27.33 -18.36 27.66 -17 28 C-17.66 27.01 -18.32 26.02 -19 25 C-19.25760279 22.30547479 -19.08900053 19.71451625 -19 17 C-18.34 17 -17.68 17 -17 17 C-17 18.32 -17 19.64 -17 21 C-16.34 21 -15.68 21 -15 21 C-15.0825 20.01 -15.165 19.02 -15.25 18 C-15.22218384 13.45669436 -13.96104515 9.4962778 -11 6 C-7.5 5.3125 -7.5 5.3125 -4 5 C-1.54801956 2.5841005 -1.54801956 2.5841005 0 0 Z " fill="#EABA95" transform="translate(108,79)"/>
<path d="M0 0 C2.64 0.33 5.28 0.66 8 1 C8.495 2.485 8.495 2.485 9 4 C9.99 3.67 10.98 3.34 12 3 C14.08989546 8.31329355 15.6112798 12.28728072 14 18 C13.26394531 17.90460938 12.52789062 17.80921875 11.76953125 17.7109375 C10.79371094 17.60007812 9.81789062 17.48921875 8.8125 17.375 C7.84957031 17.25898437 6.88664062 17.14296875 5.89453125 17.0234375 C2.75924677 16.99805058 0.80513465 17.65640717 -2 19 C-1.67 20.32 -1.34 21.64 -1 23 C-0.34 23 0.32 23 1 23 C1 22.34 1 21.68 1 21 C4.3 21.33 7.6 21.66 11 22 C11.495 23.98 11.495 23.98 12 26 C12.226875 25.360625 12.45375 24.72125 12.6875 24.0625 C14 22 14 22 16.625 21.25 C17.40875 21.1675 18.1925 21.085 19 21 C19 21.66 19 22.32 19 23 C22.96 22.505 22.96 22.505 27 22 C27 21.34 27 20.68 27 20 C28.32 19.67 29.64 19.34 31 19 C30.64987213 21.59094622 30.26229035 23.5774211 28.875 25.8125 C25.99131838 27.63883169 23.32254207 27.18806842 20 27 C17.76059686 31.79872101 16.9439136 36.82855847 16 42 C15.34 42 14.68 42 14 42 C14 40.68 14 39.36 14 38 C13.34 38 12.68 38 12 38 C12.144375 39.258125 12.28875 40.51625 12.4375 41.8125 C12.51871094 42.52019531 12.59992188 43.22789063 12.68359375 43.95703125 C12.97170735 46.19396393 12.97170735 46.19396393 14 49 C11.64558284 48.85758352 9.29152516 48.71115192 6.9375 48.5625 C5.62652344 48.48128906 4.31554687 48.40007812 2.96484375 48.31640625 C-0.73663238 48.02101751 -4.33370448 47.56734612 -8 47 C-8 46.34 -8 45.68 -8 45 C-8.60328125 45.144375 -9.2065625 45.28875 -9.828125 45.4375 C-10.62734375 45.623125 -11.4265625 45.80875 -12.25 46 C-13.03890625 46.185625 -13.8278125 46.37125 -14.640625 46.5625 C-17 47 -17 47 -21 47 C-21 46.34 -21 45.68 -21 45 C-18.36 44.67 -15.72 44.34 -13 44 C-15.91290967 41.80370755 -15.91290967 41.80370755 -19.5 41.1875 C-23 40 -23 40 -24.9375 37.875 C-26.37166174 33.99432707 -26.27097299 31.13233808 -26 27 C-25.67 26.34 -25.34 25.68 -25 25 C-20.00837213 25.47996422 -18.14964417 25.88776687 -14 29 C-14.33 23.72 -14.66 18.44 -15 13 C-13.68 12.67 -12.36 12.34 -11 12 C-8.47546355 8.60158555 -7.21827311 5.02967261 -6 1 C-5.34 1.99 -4.68 2.98 -4 4 C-3.34 4 -2.68 4 -2 4 C-1.34 2.68 -0.68 1.36 0 0 Z " fill="#EDCDAE" transform="translate(77,58)"/>
<path d="M0 0 C0.886875 0.103125 1.77375 0.20625 2.6875 0.3125 C3.25388908 5.12680721 1.51311627 7.51557814 -1.3125 11.3125 C1.6575 11.3125 4.6275 11.3125 7.6875 11.3125 C8.1825 12.3025 8.1825 12.3025 8.6875 13.3125 C5.20029384 17.6715077 1.95989085 18.25802183 -3.3125 19.3125 C-2.6525 23.6025 -1.9925 27.8925 -1.3125 32.3125 C-3.2925 31.6525 -5.2725 30.9925 -7.3125 30.3125 C-7.6425 31.9625 -7.9725 33.6125 -8.3125 35.3125 C-8.6425 35.3125 -8.9725 35.3125 -9.3125 35.3125 C-9.51336443 31.59650809 -9.4644437 30.54041555 -7.3125 27.3125 C-9.60677979 24.78879223 -11.07774552 23.92987724 -14.3125 22.3125 C-14.3125 25.2825 -14.3125 28.2525 -14.3125 31.3125 C-15.6325 31.6425 -16.9525 31.9725 -18.3125 32.3125 C-19.6325 30.3325 -20.9525 28.3525 -22.3125 26.3125 C-22.44527344 27.01117188 -22.57804687 27.70984375 -22.71484375 28.4296875 C-22.89144531 29.33976562 -23.06804687 30.24984375 -23.25 31.1875 C-23.42402344 32.09242187 -23.59804687 32.99734375 -23.77734375 33.9296875 C-24.3125 36.3125 -24.3125 36.3125 -25.3125 38.3125 C-23.0025 38.3125 -20.6925 38.3125 -18.3125 38.3125 C-17.8175 37.3225 -17.8175 37.3225 -17.3125 36.3125 C-16.27244298 39.69268531 -16.23245518 42.7905279 -16.3125 46.3125 C-16.9725 46.3125 -17.6325 46.3125 -18.3125 46.3125 C-17.8175 48.7875 -17.8175 48.7875 -17.3125 51.3125 C-16.6525 51.3125 -15.9925 51.3125 -15.3125 51.3125 C-15.6425 52.6325 -15.9725 53.9525 -16.3125 55.3125 C-17.3025 54.9825 -18.2925 54.6525 -19.3125 54.3125 C-20.26171875 52.31640625 -20.26171875 52.31640625 -21 49.875 C-21.25136719 49.07191406 -21.50273438 48.26882812 -21.76171875 47.44140625 C-22.3125 45.3125 -22.3125 45.3125 -22.3125 43.3125 C-23.6325 44.3025 -24.9525 45.2925 -26.3125 46.3125 C-26.3125 44.6625 -26.3125 43.0125 -26.3125 41.3125 C-28.9525 41.3125 -31.5925 41.3125 -34.3125 41.3125 C-34.9725 42.6325 -35.6325 43.9525 -36.3125 45.3125 C-37.6325 44.6525 -38.9525 43.9925 -40.3125 43.3125 C-40.76625 44.405625 -41.22 45.49875 -41.6875 46.625 C-42.72892091 49.13387765 -43.77728044 51.00967067 -45.3125 53.3125 C-48.51350846 53.64944826 -51.24109432 53.22254613 -54.3125 52.3125 C-53.9825 51.3225 -53.6525 50.3325 -53.3125 49.3125 C-54.3025 49.3125 -55.2925 49.3125 -56.3125 49.3125 C-56.3125 47.9925 -56.3125 46.6725 -56.3125 45.3125 C-56.9725 45.3125 -57.6325 45.3125 -58.3125 45.3125 C-58.6425 46.3025 -58.9725 47.2925 -59.3125 48.3125 C-61.25 51.5 -61.25 51.5 -63.3125 54.3125 C-63.9725 54.3125 -64.6325 54.3125 -65.3125 54.3125 C-65.3125 53.3225 -65.3125 52.3325 -65.3125 51.3125 C-64.6525 51.3125 -63.9925 51.3125 -63.3125 51.3125 C-63.3125 50.6525 -63.3125 49.9925 -63.3125 49.3125 C-62.6525 49.3125 -61.9925 49.3125 -61.3125 49.3125 C-61.19189209 48.71719482 -61.07128418 48.12188965 -60.94702148 47.50854492 C-59.93723501 44.01372795 -57.6103559 41.42729945 -55.375 38.625 C-54.87919434 38.00286621 -54.38338867 37.38073242 -53.87255859 36.73974609 C-45.70285864 26.69614236 -33.80670703 14.79287714 -20.3125 13.3125 C-16.43631188 12.77163654 -14.98326387 12.10466223 -12.3125 9.3125 C-11.3225 9.3125 -10.3325 9.3125 -9.3125 9.3125 C-9.2196875 8.4771875 -9.2196875 8.4771875 -9.125 7.625 C-7.50984415 3.02801797 -4.85367666 0.45789402 0 0 Z " fill="#7D4D21" transform="translate(111.3125,17.6875)"/>
<path d="M0 0 C0 0.99 0 1.98 0 3 C0.84766809 5.08275837 1.75310275 7.14218208 2.6875 9.1875 C10.51186215 27.00332846 17.00758053 48.46304493 13 68 C12.34 68 11.68 68 11 68 C11 68.66 11 69.32 11 70 C9.35 69.67 7.7 69.34 6 69 C5.87625 68.360625 5.7525 67.72125 5.625 67.0625 C5.41875 66.381875 5.2125 65.70125 5 65 C4.34 64.67 3.68 64.34 3 64 C2.10328144 61.29504698 1.30449029 58.62243155 0.5625 55.875 C-0.62559771 51.52738694 -1.79138086 47.30595994 -3.66015625 43.1953125 C-5 40 -5 40 -5 36 C-5.66 36 -6.32 36 -7 36 C-7.24234375 35.443125 -7.4846875 34.88625 -7.734375 34.3125 C-10.46268881 28.10033933 -13.21805582 21.92747973 -16.75 16.125 C-18 14 -18 14 -18 12 C-20.64 11.67 -23.28 11.34 -26 11 C-26 10.01 -26 9.02 -26 8 C-25.34 8.33 -24.68 8.66 -24 9 C-16.1026517 9.95974719 -9.50546731 8.751936 -3 4 C-2.67 3.01 -2.34 2.02 -2 1 C-1.34 0.67 -0.68 0.34 0 0 Z " fill="#ECD0B2" transform="translate(93,180)"/>
<path d="M0 0 C7.92 0.33 15.84 0.66 24 1 C24 1.33 24 1.66 24 2 C22.02 2 20.04 2 18 2 C18.04253906 3.16273438 18.08507813 4.32546875 18.12890625 5.5234375 C18.1223421 9.79013735 17.26880645 13.58643317 15.9375 17.625 C15.60685547 18.65270508 15.60685547 18.65270508 15.26953125 19.70117188 C11.91218205 29.70865508 7.05199699 39.35429001 1 48 C0.34 48 -0.32 48 -1 48 C-1.25265625 48.59296875 -1.5053125 49.1859375 -1.765625 49.796875 C-3.89139813 53.5909764 -7.265142 55.87272466 -11 58 C-14.4375 58.4375 -14.4375 58.4375 -17 58 C-18 57 -18 57 -18.0625 53.375 C-17.50454657 48.75195726 -15.65949703 45.22825866 -13.375 41.25 C-6.19318804 28.62756976 -1.72837158 14.40309654 0 0 Z " fill="#EED1B3" transform="translate(30,192)"/>
<path d="M0 0 C1.09731445 0.15662109 1.09731445 0.15662109 2.21679688 0.31640625 C4.0006207 0.57290379 5.78188297 0.84711259 7.5625 1.125 C7.830625 1.929375 8.09875 2.73375 8.375 3.5625 C8.766875 4.408125 9.15875 5.25375 9.5625 6.125 C11.0475 6.62 11.0475 6.62 12.5625 7.125 C12.87711385 14.22129025 13.00822039 19.80784595 9.5625 26.125 C8.2425 25.795 6.9225 25.465 5.5625 25.125 C5.2325 26.115 4.9025 27.105 4.5625 28.125 C3.2425 26.805 1.9225 25.485 0.5625 24.125 C-2.92420834 25.2344072 -6.21234237 26.38837666 -9.4375 28.125 C-9.4375 29.115 -9.4375 30.105 -9.4375 31.125 C-10.0975 31.125 -10.7575 31.125 -11.4375 31.125 C-11.87136092 35.00297662 -11.87136092 35.00297662 -9.9375 36.875 C-9.4425 37.2875 -8.9475 37.7 -8.4375 38.125 C-11.4075 38.62 -11.4075 38.62 -14.4375 39.125 C-15.23436606 37.58601439 -16.02473141 36.04366216 -16.8125 34.5 C-17.25335938 33.64148438 -17.69421875 32.78296875 -18.1484375 31.8984375 C-21.67234962 24.31668719 -22.26154893 17.42434995 -21.4375 9.125 C-20.41596402 6.35914315 -19.55522548 5.24272548 -17.4375 3.125 C-16.7775 3.125 -16.1175 3.125 -15.4375 3.125 C-15.4375 2.465 -15.4375 1.805 -15.4375 1.125 C-9.86585834 -0.85179796 -5.79704451 -0.92285979 0 0 Z " fill="#FABE08" transform="translate(79.4375,104.875)"/>
<path d="M0 0 C3.625 1.5625 3.625 1.5625 6 3 C6 3.66 6 4.32 6 5 C6.88945313 5.14115234 6.88945313 5.14115234 7.796875 5.28515625 C10.49142641 6.15945219 11.46322756 7.26720318 13.25 9.4375 C13.77078125 10.05496094 14.2915625 10.67242187 14.828125 11.30859375 C16 13 16 13 16 15 C16.66 15 17.32 15 18 15 C18 15.99 18 16.98 18 18 C16.41143563 19.31229231 14.82033714 20.62160211 13.21875 21.91796875 C10.35264348 24.60746659 8.01100454 27.57236686 5.625 30.6875 C5.18430176 31.25839355 4.74360352 31.82928711 4.28955078 32.41748047 C2.39016675 34.93392327 1.00416537 36.98750389 0 40 C-0.66 40 -1.32 40 -2 40 C-2 40.66 -2 41.32 -2 42 C-2.66 42 -3.32 42 -4 42 C-4.33 43.32 -4.66 44.64 -5 46 C-5.66 45.67 -6.32 45.34 -7 45 C-6.67 41.7 -6.34 38.4 -6 35 C-6.66 35 -7.32 35 -8 35 C-8 34.34 -8 33.68 -8 33 C-8.66 33 -9.32 33 -10 33 C-10 32.34 -10 31.68 -10 31 C-10.66 31 -11.32 31 -12 31 C-16.21260627 22.04821168 -15.78473216 12.59293537 -14 3 C-13.34 3 -12.68 3 -12 3 C-12 2.01 -12 1.02 -12 0 C-8.31058261 -1.8447087 -3.95433754 -0.70742736 0 0 Z " fill="#398B31" transform="translate(50,27)"/>
<path d="M0 0 C0.33 0.99 0.66 1.98 1 3 C0.34 3 -0.32 3 -1 3 C-1.05880804 6.16658663 -1.09386406 9.33302993 -1.125 12.5 C-1.14175781 13.386875 -1.15851562 14.27375 -1.17578125 15.1875 C-1.2172205 20.82323788 -0.60441286 25.59300232 1 31 C1.66 31 2.32 31 3 31 C3 31.66 3 32.32 3 33 C3.66 33 4.32 33 5 33 C5 33.66 5 34.32 5 35 C5.66 35 6.32 35 7 35 C7.75654909 38.69868445 8.20037005 41.39888984 7 45 C6.85570557 45.61842773 6.71141113 46.23685547 6.56274414 46.87402344 C6.00032534 48.99877091 5.26150674 50.88314844 4.37109375 52.890625 C4.05849609 53.59960938 3.74589844 54.30859375 3.42382812 55.0390625 C3.09833984 55.76867187 2.77285156 56.49828125 2.4375 57.25 C2.10814453 57.99507812 1.77878906 58.74015625 1.43945312 59.5078125 C0.62914934 61.33980368 -0.18504434 63.17007345 -1 65 C-10.33985399 53.69699199 -14.90233352 41.73059465 -14 27 C-13.17708814 21.26767081 -11.44796909 16.22975214 -9 11 C-8.34 11 -7.68 11 -7 11 C-6.5978125 9.88625 -6.5978125 9.88625 -6.1875 8.75 C-5.04723249 6.10938051 -3.90619694 4.14447156 -2 2 C-1.34 2 -0.68 2 0 2 C0 1.34 0 0.68 0 0 Z " fill="#97C269" transform="translate(37,27)"/>
<path d="M0 0 C-0.66 1.32 -1.32 2.64 -2 4 C0.97 4.495 0.97 4.495 4 5 C3.67 6.98 3.34 8.96 3 11 C3.66 11 4.32 11 5 11 C5.33 10.34 5.66 9.68 6 9 C6.99 8.34 7.98 7.68 9 7 C9.495 9.97 9.495 9.97 10 13 C13.96 13 17.92 13 22 13 C22.33 12.34 22.66 11.68 23 11 C24.04005702 14.38018531 24.08004482 17.4780279 24 21 C23.34 21 22.68 21 22 21 C22.495 23.475 22.495 23.475 23 26 C23.66 26 24.32 26 25 26 C24.67 27.32 24.34 28.64 24 30 C23.01 29.67 22.02 29.34 21 29 C20.05078125 27.00390625 20.05078125 27.00390625 19.3125 24.5625 C19.06113281 23.75941406 18.80976562 22.95632812 18.55078125 22.12890625 C18 20 18 20 18 18 C16.68 18.99 15.36 19.98 14 21 C14 19.35 14 17.7 14 16 C11.36 16 8.72 16 6 16 C5.34 17.32 4.68 18.64 4 20 C2.68 19.34 1.36 18.68 0 18 C-0.45375 19.093125 -0.9075 20.18625 -1.375 21.3125 C-2.41642091 23.82137765 -3.46478044 25.69717067 -5 28 C-8.20100846 28.33694826 -10.92859432 27.91004613 -14 27 C-13.67 26.01 -13.34 25.02 -13 24 C-13.99 24 -14.98 24 -16 24 C-16 22.68 -16 21.36 -16 20 C-16.66 20 -17.32 20 -18 20 C-18.33 20.99 -18.66 21.98 -19 23 C-20.9375 26.1875 -20.9375 26.1875 -23 29 C-23.66 29 -24.32 29 -25 29 C-25 28.01 -25 27.02 -25 26 C-24.34 26 -23.68 26 -23 26 C-23 25.34 -23 24.68 -23 24 C-22.34 24 -21.68 24 -21 24 C-20.88156738 23.40687012 -20.76313477 22.81374023 -20.64111328 22.20263672 C-19.601788 18.63188549 -17.16612219 15.98559624 -14.875 13.125 C-14.37943604 12.50093262 -13.88387207 11.87686523 -13.37329102 11.23388672 C-4.29500037 0 -4.29500037 0 0 0 Z " fill="#7F5025" transform="translate(71,43)"/>
<path d="M0 0 C0.66 0.33 1.32 0.66 2 1 C0.31735954 5.16653828 -1.30353343 8.40471124 -4 12 C-4 12.99 -4 13.98 -4 15 C-4.90347492 18.37297302 -5.89585014 21.68755043 -7 25 C-7.15029988 27.06362991 -7.24844448 29.13123915 -7.31640625 31.19921875 C-7.35830078 32.40771484 -7.40019531 33.61621094 -7.44335938 34.86132812 C-7.48267578 36.12396484 -7.52199219 37.38660156 -7.5625 38.6875 C-7.60568359 39.96173828 -7.64886719 41.23597656 -7.69335938 42.54882812 C-7.7995486 45.69910852 -7.90159533 48.84946839 -8 52 C-9.65 52 -11.3 52 -13 52 C-13 51.34 -13 50.68 -13 50 C-13.61488281 49.90203125 -14.22976562 49.8040625 -14.86328125 49.703125 C-21.40052895 48.49368205 -21.40052895 48.49368205 -24.125 46.25 C-25.33096129 43.14895669 -24.78408051 41.2016621 -24 38 C-23.7215625 36.576875 -23.7215625 36.576875 -23.4375 35.125 C-23.293125 34.42375 -23.14875 33.7225 -23 33 C-22.34 33 -21.68 33 -21 33 C-20.814375 32.12601563 -20.814375 32.12601563 -20.625 31.234375 C-17.43616212 18.55874443 -8.83686868 9.19903543 0 0 Z " fill="#FBD663" transform="translate(58,111)"/>
<path d="M0 0 C0 0.66 0 1.32 0 2 C0.99 2.33 1.98 2.66 3 3 C3.33 2.34 3.66 1.68 4 1 C5.32 1 6.64 1 8 1 C8.66 0.34 9.32 -0.32 10 -1 C10 0.32 10 1.64 10 3 C12.475 3.495 12.475 3.495 15 4 C15.12375 4.763125 15.2475 5.52625 15.375 6.3125 C15.88102792 9.20267136 15.88102792 9.20267136 18 12 C17.14150437 15.74616277 16.25509156 18.79118787 13 21 C9.8125 21.6875 9.8125 21.6875 7 22 C6.67 25.3 6.34 28.6 6 32 C5.67 32 5.34 32 5 32 C5 28.04 5 24.08 5 20 C3.7934375 19.9071875 3.7934375 19.9071875 2.5625 19.8125 C-3.71334496 18.38116694 -8.94789911 14.90909164 -14 11 C-13.67 9.68 -13.34 8.36 -13 7 C-12.34 7 -11.68 7 -11 7 C-11 6.01 -11 5.02 -11 4 C-9.35546875 2.578125 -9.35546875 2.578125 -7.1875 1.25 C-6.47980469 0.80140625 -5.77210937 0.3528125 -5.04296875 -0.109375 C-3 -1 -3 -1 0 0 Z " fill="#ECBA91" transform="translate(81,129)"/>
<path d="M0 0 C0.66 0 1.32 0 2 0 C2.33 2.97 2.66 5.94 3 9 C3.99 6.36 4.98 3.72 6 1 C8 4 8 4 9 6 C10.65 4.35 12.3 2.7 14 1 C14.33 2.65 14.66 4.3 15 6 C15.33 5.34 15.66 4.68 16 4 C17.32 4.33 18.64 4.66 20 5 C19.401875 6.010625 18.80375 7.02125 18.1875 8.0625 C16.72651725 10.59349828 15.51055105 13.09562607 14.4375 15.8125 C13 19 13 19 10 21 C10.2475 22.918125 10.2475 22.918125 10.5 24.875 C11.00197427 30.02023622 11.17898823 35.14639402 11.25 40.3125 C11.27126953 41.08899902 11.29253906 41.86549805 11.31445312 42.66552734 C11.34214534 47.24364459 11.03421146 50.31033994 8 54 C7.34 54 6.68 54 6 54 C5.67 50.7 5.34 47.4 5 44 C4.01 44.495 4.01 44.495 3 45 C3.495 44.071875 3.495 44.071875 4 43.125 C5.20300918 39.36559631 5.06525771 36.21686175 4.875 32.3046875 C5 30 5 30 7 27 C7.39013716 25.0103005 7.73202649 23.00980131 8 21 C6.35 21.33 4.7 21.66 3 22 C3 25.63 3 29.26 3 33 C2.67 33 2.34 33 2 33 C1.98582031 32.16855469 1.97164062 31.33710937 1.95703125 30.48046875 C1.90933594 29.39378906 1.86164063 28.30710937 1.8125 27.1875 C1.76029297 25.56908203 1.76029297 25.56908203 1.70703125 23.91796875 C1.29017343 20.79265798 1.29017343 20.79265798 -1.5 19.25 C-2.325 18.8375 -3.15 18.425 -4 18 C-4.8125 15.8125 -4.8125 15.8125 -5 14 C-6.32 14.33 -7.64 14.66 -9 15 C-8.67 14.01 -8.34 13.02 -8 12 C-7.34 12 -6.68 12 -6 12 C-5.67 11.34 -5.34 10.68 -5 10 C-4.67 11.32 -4.34 12.64 -4 14 C-2.35 14.33 -0.7 14.66 1 15 C0.649375 14.195625 0.29875 13.39125 -0.0625 12.5625 C-1.23775292 8.09653892 -0.74026713 4.50162445 0 0 Z " fill="#E9BC98" transform="translate(114,82)"/>
<path d="M0 0 C0.99 0.33 1.98 0.66 3 1 C3.29341888 6.67276511 3.00559652 9.99067246 0 15 C-0.66 15 -1.32 15 -2 15 C-2.2165625 15.9590625 -2.2165625 15.9590625 -2.4375 16.9375 C-3 19 -3 19 -4 20 C-3.01 20.33 -2.02 20.66 -1 21 C-1.30035156 21.56589844 -1.60070312 22.13179687 -1.91015625 22.71484375 C-3.32514548 25.68175665 -4.19242101 28.73203233 -5.12109375 31.87890625 C-6.07130452 34.17208157 -7.14411615 35.38191742 -9 37 C-9 36.34 -9 35.68 -9 35 C-9.99 35 -10.98 35 -12 35 C-12.66 32.69 -13.32 30.38 -14 28 C-13.67 30.31 -13.34 32.62 -13 35 C-16.4375 33.8125 -16.4375 33.8125 -20 32 C-20.9375 29.3125 -20.9375 29.3125 -21 27 C-19.68 27.33 -18.36 27.66 -17 28 C-17.66 27.01 -18.32 26.02 -19 25 C-19.25760279 22.30547479 -19.08900053 19.71451625 -19 17 C-18.34 17 -17.68 17 -17 17 C-17 18.32 -17 19.64 -17 21 C-16.34 21 -15.68 21 -15 21 C-15.12375 19.515 -15.12375 19.515 -15.25 18 C-15.22218384 13.45669436 -13.96104515 9.4962778 -11 6 C-7.5 5.3125 -7.5 5.3125 -4 5 C-1.54801956 2.5841005 -1.54801956 2.5841005 0 0 Z " fill="#E8BB96" transform="translate(108,79)"/>
<path d="M0 0 C0.66 0 1.32 0 2 0 C2 2.97 2 5.94 2 9 C3.32 9 4.64 9 6 9 C6 8.01 6 7.02 6 6 C6.66 6 7.32 6 8 6 C8.33 4.35 8.66 2.7 9 1 C9.33 1 9.66 1 10 1 C10.1953125 3.05078125 10.390625 5.1015625 10.5859375 7.15234375 C10.72257812 7.76207031 10.85921875 8.37179688 11 9 C11.66 9.33 12.32 9.66 13 10 C13.33 8.68 13.66 7.36 14 6 C15.32 6.66 16.64 7.32 18 8 C17.61328125 8.44730469 17.2265625 8.89460938 16.828125 9.35546875 C16.30734375 9.96003906 15.7865625 10.56460938 15.25 11.1875 C14.7034375 11.82171875 14.156875 12.4559375 13.59375 13.109375 C12.26789342 14.68220486 11.00087924 16.30440766 9.75 17.9375 C8.88375 18.9584375 8.88375 18.9584375 8 20 C7.34 20 6.68 20 6 20 C6 20.66 6 21.32 6 22 C1.55585785 26.35179634 -2.65292814 28.87305856 -9 29 C-11 28 -11 28 -11.72265625 26.2578125 C-12.83362303 17.21360404 -4.75945352 7.13918029 0 0 Z " fill="#3C8833" transform="translate(34,92)"/>
<path d="M0 0 C1.67282031 2.88941691 2 4.6591357 2 8 C0.96552734 8.32871094 0.96552734 8.32871094 -0.08984375 8.6640625 C-6.08567189 10.68734607 -10.97043535 13.00945025 -16.02734375 16.828125 C-18 18 -18 18 -22 18 C-23.75300183 13.50793282 -24.70033085 9.81477459 -24 5 C-18.08773466 -2.05481969 -8.44445979 -2.74444943 0 0 Z " fill="#7D4C20" transform="translate(90,18)"/>
<path d="M0 0 C0.66 0.33 1.32 0.66 2 1 C2.33 0.67 2.66 0.34 3 0 C3.33 0 3.66 0 4 0 C4.06058594 1.04800781 4.12117188 2.09601562 4.18359375 3.17578125 C4.26801738 4.55470048 4.35266447 5.93360605 4.4375 7.3125 C4.47681641 8.00279297 4.51613281 8.69308594 4.55664062 9.40429688 C4.74927415 12.47161535 5.02322717 15.06968152 6 18 C6.11766176 19.66368258 6.17509083 21.33220803 6.1875 23 C6.20167969 23.86625 6.21585938 24.7325 6.23046875 25.625 C6 28 6 28 4 31 C3.54860541 33.0492094 3.54860541 33.0492094 3.375 35.1875 C3.25125 36.445625 3.1275 37.70375 3 39 C2.67 38.34 2.34 37.68 2 37 C1.01 36.67 0.02 36.34 -1 36 C-1.6875 33.9375 -1.6875 33.9375 -2 32 C-2.99 32.495 -2.99 32.495 -4 33 C-6.04724573 21.22833707 -5.0771192 10.84657283 0 0 Z " fill="#A2C774" transform="translate(28,38)"/>
<path d="M0 0 C2.97759558 2.97759558 2.9560567 5.20902056 3.1875 9.375 C3 13 3 13 1.875 16.0625 C0.78252621 19.73009058 1.51965368 21.54585858 3 25 C2.01 24.67 1.02 24.34 0 24 C-0.66 25.98 -1.32 27.96 -2 30 C-2.66 29.67 -3.32 29.34 -4 29 C-4 26.03 -4 23.06 -4 20 C-4.66 20 -5.32 20 -6 20 C-6.10251672 25.12583611 -6.03590199 29.94997778 -5 35 C-6.65 34.67 -8.3 34.34 -10 34 C-11.125 28.25 -11.125 28.25 -10 26 C-9.87792129 24.21140489 -9.82451552 22.41771619 -9.8125 20.625 C-9.79832031 19.66851562 -9.78414063 18.71203125 -9.76953125 17.7265625 C-10.00254428 14.96989983 -10.59079836 13.35052605 -12 11 C-11.34 11 -10.68 11 -10 11 C-9.67 10.01 -9.34 9.02 -9 8 C-7.6078125 7.9690625 -7.6078125 7.9690625 -6.1875 7.9375 C-2.99303786 7.37155641 -2.99303786 7.37155641 -1.93359375 5.375 C-1.20025229 3.61781467 -0.59224075 1.80962451 0 0 Z " fill="#EED3B7" transform="translate(120,62)"/>
<path d="M0 0 C0.86625 0.12375 1.7325 0.2475 2.625 0.375 C3.19138908 5.18930721 1.45061627 7.57807814 -1.375 11.375 C1.595 11.375 4.565 11.375 7.625 11.375 C7.955 12.035 8.285 12.695 8.625 13.375 C5.13779384 17.7340077 1.89739085 18.32052183 -3.375 19.375 C-2.715 23.665 -2.055 27.955 -1.375 32.375 C-3.355 31.715 -5.335 31.055 -7.375 30.375 C-7.87 32.85 -7.87 32.85 -8.375 35.375 C-8.705 35.375 -9.035 35.375 -9.375 35.375 C-9.57586443 31.65900809 -9.5269437 30.60291555 -7.375 27.375 C-7.705 26.385 -8.035 25.395 -8.375 24.375 C-7.055 24.375 -5.735 24.375 -4.375 24.375 C-5.035 22.395 -5.695 20.415 -6.375 18.375 C-5.715 18.375 -5.055 18.375 -4.375 18.375 C-4.40622943 16.40743548 -4.40622943 16.40743548 -5.375 14.375 C-8.37115946 13.0704344 -8.37115946 13.0704344 -11.375 12.375 C-10.735625 11.900625 -10.09625 11.42625 -9.4375 10.9375 C-7.49206694 9.53761274 -7.49206694 9.53761274 -6.375 8.375 C-7.365 7.715 -8.355 7.055 -9.375 6.375 C-4.20576923 0.46730769 -4.20576923 0.46730769 0 0 Z " fill="#784B1C" transform="translate(111.375,17.625)"/>
<path d="M0 0 C3.125 -0.1875 3.125 -0.1875 6 0 C5.01 0.495 5.01 0.495 4 1 C4 3.31 4 5.62 4 8 C4.99 8 5.98 8 7 8 C8.70159453 19.52164009 8.70159453 19.52164009 5 25 C5.66 25 6.32 25 7 25 C7.33 24.01 7.66 23.02 8 22 C9 25 9 25 8.375 27 C8.25125 27.66 8.1275 28.32 8 29 C9.35444301 30.77190909 9.35444301 30.77190909 11 32 C8.03 32.495 8.03 32.495 5 33 C4.20313394 31.46101439 3.41276859 29.91866216 2.625 28.375 C2.18414062 27.51648438 1.74328125 26.65796875 1.2890625 25.7734375 C-1.24902438 20.31270512 -2.27591121 15.85628966 -2.25 9.8125 C-2.25515625 8.60207031 -2.2603125 7.39164062 -2.265625 6.14453125 C-2 3 -2 3 0 0 Z " fill="#EA8B06" transform="translate(60,111)"/>
<path d="M0 0 C0.92232422 0.63228516 0.92232422 0.63228516 1.86328125 1.27734375 C3.07564453 2.09912109 3.07564453 2.09912109 4.3125 2.9375 C5.11300781 3.48277344 5.91351563 4.02804688 6.73828125 4.58984375 C9.0258143 6.13837326 9.0258143 6.13837326 12 7 C12 7.66 12 8.32 12 9 C11.21625 9.0825 10.4325 9.165 9.625 9.25 C6.85250896 9.72806339 6.85250896 9.72806339 5.6875 12.0625 C5.3471875 13.0215625 5.3471875 13.0215625 5 14 C3.9275 13.855625 2.855 13.71125 1.75 13.5625 C-7.01457424 13.53136475 -15.2587773 20.94408297 -22 26 C-22 25.34 -22 24.68 -22 24 C-22.66 24 -23.32 24 -24 24 C-23.67 23.34 -23.34 22.68 -23 22 C-22.01 22.33 -21.02 22.66 -20 23 C-20.66 21.35 -21.32 19.7 -22 18 C-21.27296875 17.73058594 -20.5459375 17.46117188 -19.796875 17.18359375 C-17.05956543 16.02520716 -14.74704643 14.6659955 -12.25 13.0625 C-7.66592457 10.24735458 -3.17347557 8.42458023 2 7 C1.34 6.01 0.68 5.02 0 4 C0 2.68 0 1.36 0 0 Z " fill="#6AA129" transform="translate(90,18)"/>
<path d="M0 0 C3.55150592 0.30441479 4.97138802 0.97593993 7.75 3.3125 C9.78634065 5.74479578 10.6577784 6.92000563 11 10 C11.66 10 12.32 10 13 10 C13.99 11.98 14.98 13.96 16 16 C14.71186658 16.83878455 13.41936744 17.67086783 12.125 18.5 C11.40570313 18.9640625 10.68640625 19.428125 9.9453125 19.90625 C8 21 8 21 6 21 C5.67 21.99 5.34 22.98 5 24 C4.67 23.34 4.34 22.68 4 22 C3.67 22.66 3.34 23.32 3 24 C2.34 24 1.68 24 1 24 C1.33 23.236875 1.66 22.47375 2 21.6875 C3.33945668 16.74825349 3.16287658 12.08536891 3 7 C2.01 7.33 1.02 7.66 0 8 C-0.79953138 4.71303767 -1.09658936 3.28976808 0 0 Z " fill="#ED9011" transform="translate(64,112)"/>
<path d="M0 0 C0.99 0.33 1.98 0.66 3 1 C3.29341888 6.67276511 3.00559652 9.99067246 0 15 C-0.66 15 -1.32 15 -2 15 C-2.33 16.32 -2.66 17.64 -3 19 C-3.99 19 -4.98 19 -6 19 C-6 17.68 -6 16.36 -6 15 C-6.66 15 -7.32 15 -8 15 C-8.33 16.65 -8.66 18.3 -9 20 C-9.66 20 -10.32 20 -11 20 C-12.46876252 15.59371244 -13.41393552 12.49888575 -12 8 C-11.67 7.34 -11.34 6.68 -11 6 C-9.906875 5.896875 -8.81375 5.79375 -7.6875 5.6875 C-3.85142341 5.34494061 -3.85142341 5.34494061 -1.5625 2.4375 C-1.046875 1.633125 -0.53125 0.82875 0 0 Z " fill="#E08382" transform="translate(108,79)"/>
<path d="M0 0 C4.05629026 0.62942435 5.71622829 1.74187289 8.625 4.5625 C8.625 7.50327007 8.05178658 9.12756475 5.98828125 11.23046875 C2.66565424 13.89489917 0.47347403 15.4545124 -3.8125 16 C-6.375 15.5625 -6.375 15.5625 -7.375 14.5625 C-7.32349687 8.33062105 -7.14548993 1.19091499 0 0 Z " fill="#2D94D0" transform="translate(19.375,234.4375)"/>
<path d="M0 0 C0.22211116 1.93596892 0.42722992 3.87389328 0.625 5.8125 C0.74101563 6.89144531 0.85703125 7.97039062 0.9765625 9.08203125 C1 12 1 12 -1 15 C-1.4021875 15.67417969 -1.804375 16.34835938 -2.21875 17.04296875 C-2.6415625 17.75066406 -3.064375 18.45835937 -3.5 19.1875 C-3.9228125 19.90292969 -4.345625 20.61835938 -4.78125 21.35546875 C-5.1834375 21.89816406 -5.585625 22.44085938 -6 23 C-6.66 23 -7.32 23 -8 23 C-8.33 24.65 -8.66 26.3 -9 28 C-10.32 27.34 -11.64 26.68 -13 26 C-12.49228528 20.03435204 -10.61407872 15.36190101 -8 10 C-7.34 10 -6.68 10 -6 10 C-5.9175 9.0925 -5.835 8.185 -5.75 7.25 C-5.10878399 4.4713973 -3.58674918 0 0 0 Z " fill="#FADE7B" transform="translate(48,129)"/>
<path d="M0 0 C1.85625 0.061875 1.85625 0.061875 3.75 0.125 C3.85251672 5.25083611 3.78590199 10.07497778 2.75 15.125 C2.09 15.125 1.43 15.125 0.75 15.125 C0.75 15.785 0.75 16.445 0.75 17.125 C-0.9 16.795 -2.55 16.465 -4.25 16.125 C-4.37375 15.485625 -4.4975 14.84625 -4.625 14.1875 C-4.83125 13.506875 -5.0375 12.82625 -5.25 12.125 C-5.91 11.795 -6.57 11.465 -7.25 11.125 C-7.6640625 9.05859375 -7.6640625 9.05859375 -7.875 6.5625 C-7.94976562 5.73621094 -8.02453125 4.90992188 -8.1015625 4.05859375 C-8.15054688 3.42050781 -8.19953125 2.78242188 -8.25 2.125 C-5.3504339 0.46623921 -3.33364791 -0.1111216 0 0 Z " fill="#3494CE" transform="translate(103.25,232.875)"/>
<path d="M0 0 C0.33 0.99 0.66 1.98 1 3 C0.34 3 -0.32 3 -1 3 C-1.05880804 6.16658663 -1.09386406 9.33302993 -1.125 12.5 C-1.14175781 13.386875 -1.15851562 14.27375 -1.17578125 15.1875 C-1.2172205 20.82323788 -0.60441286 25.59300232 1 31 C1.66 31 2.32 31 3 31 C3 31.66 3 32.32 3 33 C3.66 33 4.32 33 5 33 C5 33.66 5 34.32 5 35 C5.66 35 6.32 35 7 35 C7.75654909 38.69868445 8.20037005 41.39888984 7 45 C6.86464844 45.60070312 6.72929688 46.20140625 6.58984375 46.8203125 C5.92805414 49.26586615 4.98797625 51.44572952 3.9375 53.75 C3.57527344 54.54921875 3.21304688 55.3484375 2.83984375 56.171875 C2.56269531 56.77515625 2.28554688 57.3784375 2 58 C1.34 58 0.68 58 0 58 C0.4811491 52.22621075 2.18467181 48.04140164 5 43 C4.34 43 3.68 43 3 43 C3 42.01 3 41.02 3 40 C2.34 40 1.68 40 1 40 C1 39.01 1 38.02 1 37 C0.34 37 -0.32 37 -1 37 C-2.7536718 29.72992368 -3.34926022 22.44512277 -3.75 15 C-3.80663818 14.06776611 -3.86327637 13.13553223 -3.92163086 12.17504883 C-3.96296143 11.29228271 -4.00429199 10.4095166 -4.046875 9.5 C-4.08651367 8.7059375 -4.12615234 7.911875 -4.16699219 7.09375 C-4 5 -4 5 -2 2 C-1.34 2 -0.68 2 0 2 C0 1.34 0 0.68 0 0 Z " fill="#6CAA63" transform="translate(37,27)"/>
<path d="M0 0 C1.65 0 3.3 0 5 0 C5.268125 0.804375 5.53625 1.60875 5.8125 2.4375 C6.204375 3.283125 6.59625 4.12875 7 5 C7.99 5.33 8.98 5.66 10 6 C10.31461385 13.09629025 10.44572039 18.68284595 7 25 C6.01 24.67 5.02 24.34 4 24 C2.27831944 16.0509642 1.09136593 8.05753146 0 0 Z " fill="#EB8C03" transform="translate(82,106)"/>
<path d="M0 0 C0.66 1.32 1.32 2.64 2 4 C4.63571568 4.91956802 4.63571568 4.91956802 7.625 5.25 C9.12933594 5.47429687 9.12933594 5.47429687 10.6640625 5.703125 C11.43492188 5.80109375 12.20578125 5.8990625 13 6 C12.30532917 9.93646804 11.34776654 12.71312684 9 16 C8.34 16 7.68 16 7 16 C6.67 16.66 6.34 17.32 6 18 C5.731875 17.38125 5.46375 16.7625 5.1875 16.125 C4.04443152 13.7004767 4.04443152 13.7004767 1 12 C-1.32387947 11.60612212 -3.65793749 11.26513915 -6 11 C-4.02 7.37 -2.04 3.74 0 0 Z " fill="#B9D8C7" transform="translate(22,224)"/>
<path d="M0 0 C0.33 0 0.66 0 1 0 C2.20568053 4.67201205 2.09382426 9.21496292 2 14 C0.82630859 14.18175781 0.82630859 14.18175781 -0.37109375 14.3671875 C-1.38300781 14.53476563 -2.39492187 14.70234375 -3.4375 14.875 C-4.44683594 15.03742188 -5.45617187 15.19984375 -6.49609375 15.3671875 C-7.32238281 15.57601562 -8.14867188 15.78484375 -9 16 C-9.33 16.66 -9.66 17.32 -10 18 C-10.52787642 16.02270019 -11.04712903 14.04309608 -11.5625 12.0625 C-11.99755859 10.40927734 -11.99755859 10.40927734 -12.44140625 8.72265625 C-12.62574219 7.82417969 -12.81007813 6.92570313 -13 6 C-11.14570806 4.14570806 -8.49788211 4.53510606 -6.01171875 4.25390625 C-3.95150594 3.99387939 -1.99363462 3.58147676 0 3 C0 2.01 0 1.02 0 0 Z " fill="#BDDAC6" transform="translate(104,219)"/>
<path d="M0 0 C0.33 0.99 0.66 1.98 1 3 C1.66 3 2.32 3 3 3 C3 3.99 3 4.98 3 6 C3.66 6 4.32 6 5 6 C4.52423332 9.14006007 3.7641084 11.51896153 2.4375 14.4375 C0.80120942 17.85238994 0.80120942 17.85238994 1 21.1875 C1 24.56252009 0.08650565 25.46250484 -2 28 C-3.03320481 26.40377344 -4.05122429 24.79770894 -5.0625 23.1875 C-5.63097656 22.29417969 -6.19945313 21.40085937 -6.78515625 20.48046875 C-8 18 -8 18 -7 15 C-6.34 15.33 -5.68 15.66 -5 16 C-5.061875 15.236875 -5.12375 14.47375 -5.1875 13.6875 C-5 11 -5 11 -3.625 9.1875 C-2 8 -2 8 0 8 C0 5.36 0 2.72 0 0 Z " fill="#91C162" transform="translate(37,64)"/>
<path d="M0 0 C0.66 0.33 1.32 0.66 2 1 C2 1.66 2 2.32 2 3 C2.78375 3.28875 3.5675 3.5775 4.375 3.875 C7 5 7 5 9 7 C8.01 7 7.02 7 6 7 C5.938125 7.9075 5.87625 8.815 5.8125 9.75 C5 13 5 13 2.75 15.375 C-0.19132443 17.11305534 -1.6549611 17.38229016 -5 17 C-4.69343615 10.37822074 -3.25711277 5.77874846 0 0 Z " fill="#76AF36" transform="translate(34,156)"/>
<path d="M0 0 C2 3.75 2 3.75 2 6 C5.96 6 9.92 6 14 6 C14.33 5.34 14.66 4.68 15 4 C16.04005702 7.38018531 16.08004482 10.4780279 16 14 C15.34 14 14.68 14 14 14 C14.33 15.65 14.66 17.3 15 19 C15.66 19 16.32 19 17 19 C16.67 20.32 16.34 21.64 16 23 C15.01 22.67 14.02 22.34 13 22 C12.05078125 20.00390625 12.05078125 20.00390625 11.3125 17.5625 C11.06113281 16.75941406 10.80976562 15.95632812 10.55078125 15.12890625 C10 13 10 13 10 11 C8.68 11.99 7.36 12.98 6 14 C6 12.35 6 10.7 6 9 C3.36 8.67 0.72 8.34 -2 8 C-1.34 5.36 -0.68 2.72 0 0 Z " fill="#DEC1A4" transform="translate(79,50)"/>
<path d="M0 0 C3.375 0.3125 3.375 0.3125 7 1 C7.66 1.99 8.32 2.98 9 4 C8.34 4 7.68 4 7 4 C7.33 4.7425 7.66 5.485 8 6.25 C9 9 9 9 9 13 C7 14.75 7 14.75 5 16 C0.125 13.375 0.125 13.375 -1 10 C-1.47469459 2.94938918 -1.47469459 2.94938918 0 0 Z " fill="#EAC9A7" transform="translate(52,83)"/>
<path d="M0 0 C0.66 0.33 1.32 0.66 2 1 C2 2.98 2 4.96 2 7 C2.99 7 3.98 7 5 7 C5 7.66 5 8.32 5 9 C6.32 9.33 7.64 9.66 9 10 C9.79953138 13.28696233 10.09658936 14.71023192 9 18 C8.01 18.33 7.02 18.66 6 19 C5.01 16.36 4.02 13.72 3 11 C2.855625 11.721875 2.71125 12.44375 2.5625 13.1875 C2.04166667 15.79166667 1.52083333 18.39583333 1 21 C0.34 21 -0.32 21 -1 21 C-1.33 21.99 -1.66 22.98 -2 24 C-3.20460682 17.97696588 -3.20313831 12.04707779 -2 6 C-1.34 5.67 -0.68 5.34 0 5 C0 3.35 0 1.7 0 0 Z " fill="#E9B796" transform="translate(94,107)"/>
<path d="M0 0 C0.99 0.33 1.98 0.66 3 1 C4.69882188 9.41826913 5.24911914 17.41922945 5 26 C4.67 25.34 4.34 24.68 4 24 C3.01 23.67 2.02 23.34 1 23 C0.3125 20.9375 0.3125 20.9375 0 19 C-0.66 19.33 -1.32 19.66 -2 20 C-1.85953745 17.04132082 -1.71287776 14.08317736 -1.5625 11.125 C-1.52318359 10.28324219 -1.48386719 9.44148438 -1.44335938 8.57421875 C-1.40146484 7.76855469 -1.35957031 6.96289062 -1.31640625 6.1328125 C-1.27974854 5.38918457 -1.24309082 4.64555664 -1.20532227 3.87939453 C-1 2 -1 2 0 0 Z " fill="#B7D79B" transform="translate(26,51)"/>
<path d="M0 0 C0.33 0.66 0.66 1.32 1 2 C0.24812026 3.73259244 -0.50721987 5.46398226 -1.296875 7.1796875 C-2.19913336 9.51553415 -2.22515052 11.52334423 -2 14 C1.46586932 15.80698097 1.46586932 15.80698097 5.1875 15.3125 C7.27982864 13.95788046 7.27982864 13.95788046 9 11 C9.66 11 10.32 11 11 11 C11 8.36 11 5.72 11 3 C11.33 3 11.66 3 12 3 C12 9.27 12 15.54 12 22 C10.35 22 8.7 22 7 22 C7 21.34 7 20.68 7 20 C6.38511719 19.90203125 5.77023438 19.8040625 5.13671875 19.703125 C-1.40052895 18.49368205 -1.40052895 18.49368205 -4.125 16.25 C-5.33096129 13.14895669 -4.78408051 11.2016621 -4 8 C-3.814375 7.05125 -3.62875 6.1025 -3.4375 5.125 C-3.293125 4.42375 -3.14875 3.7225 -3 3 C-2.34 3 -1.68 3 -1 3 C-0.67 2.01 -0.34 1.02 0 0 Z " fill="#F1D043" transform="translate(38,141)"/>
<path d="M0 0 C0.33 0 0.66 0 1 0 C1.33 1.65 1.66 3.3 2 5 C2.33 4.34 2.66 3.68 3 3 C4.32 3.33 5.64 3.66 7 4 C6.401875 5.010625 5.80375 6.02125 5.1875 7.0625 C3.15324222 10.60978225 1.54445931 14.21607469 0 18 C-3.28602882 15.28902623 -4.85071248 13.82108137 -5.625 9.5625 C-4.81080256 4.92157457 -3.29772582 3.29772582 0 0 Z " fill="#EBC09D" transform="translate(127,83)"/>
<path d="M0 0 C0.86625 0.12375 1.7325 0.2475 2.625 0.375 C3.19138908 5.18930721 1.45061627 7.57807814 -1.375 11.375 C-0.385 11.705 0.605 12.035 1.625 12.375 C0.305 12.375 -1.015 12.375 -2.375 12.375 C-2.375 11.385 -2.375 10.395 -2.375 9.375 C-3.035 9.375 -3.695 9.375 -4.375 9.375 C-4.045 11.355 -3.715 13.335 -3.375 15.375 C-6.015 14.385 -8.655 13.395 -11.375 12.375 C-10.735625 11.900625 -10.09625 11.42625 -9.4375 10.9375 C-7.49206694 9.53761274 -7.49206694 9.53761274 -6.375 8.375 C-7.365 7.715 -8.355 7.055 -9.375 6.375 C-4.20576923 0.46730769 -4.20576923 0.46730769 0 0 Z " fill="#84572F" transform="translate(111.375,17.625)"/>
<path d="M0 0 C1.67282031 2.88941691 2 4.6591357 2 8 C0.02 8.33 -1.96 8.66 -4 9 C-4.103125 8.21625 -4.20625 7.4325 -4.3125 6.625 C-4.77595022 3.66954819 -4.77595022 3.66954819 -8 2 C-10.74518321 1.75812349 -10.74518321 1.75812349 -13.6875 1.875 C-14.68136719 1.89304687 -15.67523438 1.91109375 -16.69921875 1.9296875 C-17.45847656 1.95289063 -18.21773438 1.97609375 -19 2 C-19.33 2.99 -19.66 3.98 -20 5 C-20.99 5.495 -20.99 5.495 -22 6 C-22.65772428 9.02934491 -22.65772428 9.02934491 -23 12 C-23.33 12 -23.66 12 -24 12 C-24.375 8.8125 -24.375 8.8125 -24 5 C-18.1761873 -2.10001857 -8.37580124 -2.7221354 0 0 Z " fill="#785320" transform="translate(90,18)"/>
<path d="M0 0 C0.99 0.33 1.98 0.66 3 1 C3 2.65 3 4.3 3 6 C3.66 6 4.32 6 5 6 C5.33 5.34 5.66 4.68 6 4 C6.268125 4.804375 6.53625 5.60875 6.8125 6.4375 C7.204375 7.283125 7.59625 8.12875 8 9 C8.99 9.33 9.98 9.66 11 10 C11.33 9.34 11.66 8.68 12 8 C12.22941097 10.75293162 12.15751049 12.63247553 11.0625 15.1875 C7.86411034 17.99820606 4.12377541 18.34296241 0 19 C0 18.34 0 17.68 0 17 C0.66 17 1.32 17 2 17 C2 16.34 2 15.68 2 15 C2.66 15 3.32 15 4 15 C2.99806563 11.20696275 2.18975773 8.28463659 0 5 C-0.125 2.3125 -0.125 2.3125 0 0 Z " fill="#E2B09B" transform="translate(108,53)"/>
<path d="M0 0 C0.92232422 0.63228516 0.92232422 0.63228516 1.86328125 1.27734375 C2.67152344 1.82519531 3.47976562 2.37304688 4.3125 2.9375 C5.11300781 3.48277344 5.91351563 4.02804688 6.73828125 4.58984375 C9.0258143 6.13837326 9.0258143 6.13837326 12 7 C12 7.66 12 8.32 12 9 C11.21625 9.0825 10.4325 9.165 9.625 9.25 C6.85250896 9.72806339 6.85250896 9.72806339 5.6875 12.0625 C5.460625 12.701875 5.23375 13.34125 5 14 C2.69 13.67 0.38 13.34 -2 13 C-2 11.35 -2 9.7 -2 8 C-0.68 7.34 0.64 6.68 2 6 C1.34 5.34 0.68 4.68 0 4 C0 2.68 0 1.36 0 0 Z " fill="#6E982C" transform="translate(90,18)"/>
<path d="M0 0 C7.26 0.33 14.52 0.66 22 1 C22 1.33 22 1.66 22 2 C20.02 2 18.04 2 16 2 C16 3.32 16 4.64 16 6 C10.72 6 5.44 6 0 6 C0.66 5.34 1.32 4.68 2 4 C1.34 3.67 0.68 3.34 0 3 C0 2.01 0 1.02 0 0 Z " fill="#F0CEB0" transform="translate(32,192)"/>
<path d="M0 0 C1.65 0 3.3 0 5 0 C5 0.66 5 1.32 5 2 C5.99 1.67 6.98 1.34 8 1 C8.99 0.67 9.98 0.34 11 0 C11.125 7.75 11.125 7.75 10 10 C9.01 10 8.02 10 7 10 C7 8.68 7 7.36 7 6 C6.34 6 5.68 6 5 6 C4.67 7.65 4.34 9.3 4 11 C3.34 11 2.68 11 2 11 C0.80712589 7.12315913 0 4.08378077 0 0 Z " fill="#E37F80" transform="translate(95,88)"/>
<path d="M0 0 C2.5 1.5625 2.5 1.5625 4 3 C2.328125 4.55078125 2.328125 4.55078125 0 6 C-2.578125 5.85546875 -2.578125 5.85546875 -5.25 5.1875 C-6.14203125 4.97480469 -7.0340625 4.76210937 -7.953125 4.54296875 C-8.62859375 4.36378906 -9.3040625 4.18460937 -10 4 C-9.67 4.99 -9.34 5.98 -9 7 C-10.32 6.67 -11.64 6.34 -13 6 C-13 4.68 -13 3.36 -13 2 C-8.93147076 -1.68710462 -5.00740033 -1.41127149 0 0 Z " fill="#E6AF9B" transform="translate(88,75)"/>
<path d="M0 0 C4.83615252 0.75590283 6.93862679 2.06394873 10 6 C10.3125 9.3125 10.3125 9.3125 10 12 C10.66 12 11.32 12 12 12 C12 12.99 12 13.98 12 15 C9.2109375 14.4140625 9.2109375 14.4140625 6 13 C4.1015625 9.9609375 4.1015625 9.9609375 2.625 6.375 C2.12226562 5.18648438 1.61953125 3.99796875 1.1015625 2.7734375 C0.73804687 1.85820313 0.37453125 0.94296875 0 0 Z " fill="#F1A843" transform="translate(64,112)"/>
<path d="M0 0 C0.99 0 1.98 0 3 0 C3.33 1.65 3.66 3.3 4 5 C5.32 5.33 6.64 5.66 8 6 C8 6.66 8 7.32 8 8 C8.66 8 9.32 8 10 8 C10 7.34 10 6.68 10 6 C10.99 6.33 11.98 6.66 13 7 C9.12873869 10.63663942 6.3000045 11.69999975 1 12 C-1 11 -1 11 -1.75 9.375 C-2.10912151 5.96334563 -1.05444067 3.22534792 0 0 Z " fill="#4F9648" transform="translate(24,109)"/>
<path d="M0 0 C0 0.99 0 1.98 0 3 C-1.72880982 3.05449838 -3.45812712 3.09301688 -5.1875 3.125 C-6.15042969 3.14820312 -7.11335938 3.17140625 -8.10546875 3.1953125 C-11.12812778 2.9913544 -13.26769985 2.26874632 -16 1 C-16.66 2.32 -17.32 3.64 -18 5 C-19.32 4.67 -20.64 4.34 -22 4 C-20.68 3.34 -19.36 2.68 -18 2 C-18 1.34 -18 0.68 -18 0 C-11.57531738 -2.56987305 -6.63347695 -1.55940688 0 0 Z " fill="#F8C00D" transform="translate(82,106)"/>
<path d="M0 0 C2.97 0.495 2.97 0.495 6 1 C6.33 2.32 6.66 3.64 7 5 C6.01 5.33 5.02 5.66 4 6 C4 7.32 4 8.64 4 10 C1.26752652 11.36623674 -0.98198902 11.128426 -4 11 C-5 10 -5 10 -5.0625 6.9375 C-5.041875 5.968125 -5.02125 4.99875 -5 4 C-4.67 4 -4.34 4 -4 4 C-3.67 5.65 -3.34 7.3 -3 9 C-2.01 9.33 -1.02 9.66 0 10 C0 6.7 0 3.4 0 0 Z " fill="#92C6E3" transform="translate(17,239)"/>
<path d="M0 0 C1.04668851 3.40173767 1.29579163 6.45050049 1 10 C-0.515625 12.1875 -0.515625 12.1875 -2 14 C-3.03320481 12.40377344 -4.05122429 10.79770894 -5.0625 9.1875 C-5.63097656 8.29417969 -6.19945313 7.40085937 -6.78515625 6.48046875 C-8 4 -8 4 -7 1 C-6.34 1.33 -5.68 1.66 -5 2 C-5 2.66 -5 3.32 -5 4 C-4.34 4 -3.68 4 -3 4 C-3 3.34 -3 2.68 -3 2 C-2.01 1.34 -1.02 0.68 0 0 Z " fill="#82B74A" transform="translate(37,78)"/>
<path d="M0 0 C0.33 0 0.66 0 1 0 C2.27018116 5.48294867 2.41053122 10.99858543 2.71875 16.6015625 C2.86374331 19.9860735 2.86374331 19.9860735 4 23 C4.12781786 25.67394964 4.04391871 28.32095857 4 31 C-1.0095549 25.9904451 -0.34739799 16.29620343 -0.65625 9.625 C-0.7696875 8.75875 -0.883125 7.8925 -1 7 C-1.66 6.67 -2.32 6.34 -3 6 C-2.01 4.02 -1.02 2.04 0 0 Z " fill="#83B778" transform="translate(32,33)"/>
<path d="M0 0 C1.65 0.33 3.3 0.66 5 1 C3.68 1.99 2.36 2.98 1 4 C1.15597656 4.69867188 1.31195313 5.39734375 1.47265625 6.1171875 C1.66730469 7.02726562 1.86195312 7.93734375 2.0625 8.875 C2.25972656 9.77992187 2.45695312 10.68484375 2.66015625 11.6171875 C3 14 3 14 2 16 C-0.475 15.01 -0.475 15.01 -3 14 C-3.33 15.65 -3.66 17.3 -4 19 C-4.33 19 -4.66 19 -5 19 C-5.20086443 15.28400809 -5.1519437 14.22791555 -3 11 C-3.33 10.01 -3.66 9.02 -4 8 C-2.68 8 -1.36 8 0 8 C-0.66 6.02 -1.32 4.04 -2 2 C-1.34 2 -0.68 2 0 2 C0 1.34 0 0.68 0 0 Z " fill="#AB8B6F" transform="translate(107,34)"/>
<path d="M0 0 C2 3.75 2 3.75 2 6 C3.32 6 4.64 6 6 6 C5.70351562 6.56203125 5.40703125 7.1240625 5.1015625 7.703125 C3.99056497 10.01967305 3.16535294 12.30709092 2.375 14.75 C2.11460938 15.54921875 1.85421875 16.3484375 1.5859375 17.171875 C1.39257812 17.77515625 1.19921875 18.3784375 1 19 C-1.3111349 15.53329764 -1.24298883 14.14345123 -1.1875 10.0625 C-1.18105469 9.02222656 -1.17460938 7.98195313 -1.16796875 6.91015625 C-1.02535748 4.43933308 -0.71031012 2.35822959 0 0 Z " fill="#EBC2A4" transform="translate(101,94)"/>
<path d="M0 0 C0.66 0.33 1.32 0.66 2 1 C1.98839844 1.65226562 1.97679688 2.30453125 1.96484375 2.9765625 C1.91529006 7.7761914 2.00586249 12.27784685 3 17 C1.35 16.67 -0.3 16.34 -2 16 C-3.70701221 10.10304872 -1.95193635 5.58011183 0 0 Z " fill="#F2DAC4" transform="translate(112,80)"/>
<path d="M0 0 C1.32 0 2.64 0 4 0 C4.19430855 2.6246601 4.38073238 5.24946765 4.5625 7.875 C4.61857422 8.62136719 4.67464844 9.36773437 4.73242188 10.13671875 C5.11328125 15.7734375 5.11328125 15.7734375 4 18 C3.01 17.67 2.02 17.34 1 17 C1.66 17 2.32 17 3 17 C2.80528889 15.05000871 2.80528889 15.05000871 2 13 C0.0162233 11.71563266 0.0162233 11.71563266 -2 11 C-1.67 8.36 -1.34 5.72 -1 3 C0.32 3 1.64 3 3 3 C3 2.34 3 1.68 3 1 C2.01 0.67 1.02 0.34 0 0 Z " fill="#F6C71C" transform="translate(82,149)"/>
<path d="M0 0 C2 3.75 2 3.75 2 6 C2.69867188 5.97679687 3.39734375 5.95359375 4.1171875 5.9296875 C5.02726562 5.91164063 5.93734375 5.89359375 6.875 5.875 C8.23238281 5.84019531 8.23238281 5.84019531 9.6171875 5.8046875 C12 6 12 6 14 8 C13.05125 8.2475 12.1025 8.495 11.125 8.75 C7.91306809 9.6857077 7.91306809 9.6857077 6.625 12.125 C6.41875 12.74375 6.2125 13.3625 6 14 C6 12.35 6 10.7 6 9 C3.36 8.67 0.72 8.34 -2 8 C-1.34 5.36 -0.68 2.72 0 0 Z " fill="#E2C1A0" transform="translate(79,50)"/>
<path d="M0 0 C1.921875 1.9453125 1.921875 1.9453125 3.75 4.125 C4.36359375 4.84945312 4.9771875 5.57390625 5.609375 6.3203125 C6.29773438 7.15175781 6.29773438 7.15175781 7 8 C6.01 8.33 5.02 8.66 4 9 C2.30824337 7.69864875 0.64295195 6.36244796 -1 5 C-3.18214568 4.22166466 -3.18214568 4.22166466 -5 4 C-5 2.68 -5 1.36 -5 0 C-5.99 -0.33 -6.98 -0.66 -8 -1 C-4.53526588 -2.23740504 -3.10730727 -1.90148654 0 0 Z " fill="#78AC32" transform="translate(85,169)"/>
<path d="M0 0 C1 2 1 2 0.4765625 3.98828125 C0.05503906 5.13876953 0.05503906 5.13876953 -0.375 6.3125 C-1.28064921 8.85810858 -2.02591467 11.14577005 -2.5 13.8125 C-3.10233443 16.44771313 -4.26287555 17.96076695 -6 20 C-6.66 19.34 -7.32 18.68 -8 18 C-7.6442194 14.62008426 -6.64284201 11.95711562 -5 9 C-4.34 9 -3.68 9 -3 9 C-2.87625 8.071875 -2.7525 7.14375 -2.625 6.1875 C-2 3 -2 3 0 0 Z " fill="#FBE197" transform="translate(45,130)"/>
<path d="M0 0 C2.94924012 0.60325366 3.96822867 1.1868049 5.75 3.5625 C3.77 4.2225 1.79 4.8825 -0.25 5.5625 C0.41 5.8925 1.07 6.2225 1.75 6.5625 C-2.25 6.5625 -6.25 6.5625 -10.25 6.5625 C-4.41756757 0.764579 -4.41756757 0.764579 0 0 Z " fill="#69AA25" transform="translate(48.25,19.4375)"/>
<path d="M0 0 C0.33 1.32 0.66 2.64 1 4 C0.34 4 -0.32 4 -1 4 C-1.13277344 4.77085938 -1.26554687 5.54171875 -1.40234375 6.3359375 C-1.57894531 7.33882813 -1.75554688 8.34171875 -1.9375 9.375 C-2.11152344 10.37273437 -2.28554688 11.37046875 -2.46484375 12.3984375 C-3 15 -3 15 -4 17 C-5.65 16.67 -7.3 16.34 -9 16 C-8.06758496 14.08085447 -7.12885525 12.16477614 -6.1875 10.25 C-5.66542969 9.18265625 -5.14335937 8.1153125 -4.60546875 7.015625 C-3.2383308 4.44766758 -1.82284537 2.25529217 0 0 Z " fill="#5F675E" transform="translate(34,92)"/>
<path d="M0 0 C1.65 0 3.3 0 5 0 C5.33 2.64 5.66 5.28 6 8 C6.66 8 7.32 8 8 8 C8.33 9.32 8.66 10.64 9 12 C7.35 11.67 5.7 11.34 4 11 C3.87625 10.360625 3.7525 9.72125 3.625 9.0625 C3.41875 8.381875 3.2125 7.70125 3 7 C2.34 6.67 1.68 6.34 1 6 C0.375 2.9375 0.375 2.9375 0 0 Z " fill="#52A7DA" transform="translate(95,238)"/>
<path d="M0 0 C0 0.99 0 1.98 0 3 C0.061875 3.845625 0.12375 4.69125 0.1875 5.5625 C0.125625 6.366875 0.06375 7.17125 0 8 C-0.99 8.66 -1.98 9.32 -3 10 C-3.99 9.67 -4.98 9.34 -6 9 C-6 9.66 -6 10.32 -6 11 C-7.98 11 -9.96 11 -12 11 C-12.33 10.34 -12.66 9.68 -13 9 C-12.28972656 8.67386719 -11.57945313 8.34773437 -10.84765625 8.01171875 C-9.92855469 7.57472656 -9.00945312 7.13773438 -8.0625 6.6875 C-7.14597656 6.25824219 -6.22945313 5.82898438 -5.28515625 5.38671875 C-2.69030588 4.14921339 -2.69030588 4.14921339 -2 1 C-1.34 0.67 -0.68 0.34 0 0 Z " fill="#DEC9A2" transform="translate(93,180)"/>
<path d="M0 0 C1.58367747 0.14204741 3.16693318 0.28880153 4.75 0.4375 C5.63171875 0.51871094 6.5134375 0.59992188 7.421875 0.68359375 C9.69350452 0.96238465 11.79851823 1.38790577 14 2 C9.375 5 9.375 5 6 5 C5.67 8.3 5.34 11.6 5 15 C4.67 15 4.34 15 4 15 C4 11.04 4 7.08 4 3 C2.68 3 1.36 3 0 3 C0 2.01 0 1.02 0 0 Z " fill="#EDCAA9" transform="translate(82,146)"/>
<path d="M0 0 C0.33 0 0.66 0 1 0 C1 1.65 1 3.3 1 5 C1.66 5 2.32 5 3 5 C3.33 3.35 3.66 1.7 4 0 C5.26582219 3.86723631 5.1118765 7.73151262 5.0625 11.75 C5.05798828 12.44738281 5.05347656 13.14476563 5.04882812 13.86328125 C5.0371002 15.57555803 5.01916653 17.28779033 5 19 C4.01 18.67 3.02 18.34 2 18 C2 14.37 2 10.74 2 7 C1.34 7 0.68 7 0 7 C-0.33 7.99 -0.66 8.98 -1 10 C-0.67 6.7 -0.34 3.4 0 0 Z " fill="#EAAB89" transform="translate(96,94)"/>
<path d="M0 0 C1.65 0 3.3 0 5 0 C6.25664978 2.90600261 7 4.79604584 7 8 C5.02 8.33 3.04 8.66 1 9 C0.29925156 5.846632 0 3.27275026 0 0 Z " fill="#846D35" transform="translate(85,18)"/>
<path d="M0 0 C0.66 0 1.32 0 2 0 C2 0.66 2 1.32 2 2 C3.32 2.33 4.64 2.66 6 3 C6.79953138 6.28696233 7.09658936 7.71023192 6 11 C5.01 11.33 4.02 11.66 3 12 C2.49663233 10.37604003 1.99741024 8.75079459 1.5 7.125 C1.2215625 6.22007813 0.943125 5.31515625 0.65625 4.3828125 C0 2 0 2 0 0 Z " fill="#EAB26F" transform="translate(97,114)"/>
<path d="M0 0 C1.65 0.33 3.3 0.66 5 1 C6 4 6 4 6 8 C4 9.75 4 9.75 2 11 C0.35 10.01 -1.3 9.02 -3 8 C-2.67 7.01 -2.34 6.02 -2 5 C-1.34 5.66 -0.68 6.32 0 7 C0.99 5.68 1.98 4.36 3 3 C2.01 3 1.02 3 0 3 C0 2.01 0 1.02 0 0 Z " fill="#E0BE9E" transform="translate(55,88)"/>
<path d="M0 0 C0.66 0.33 1.32 0.66 2 1 C2.33 0.67 2.66 0.34 3 0 C3.33 0 3.66 0 4 0 C4 4.62 4 9.24 4 14 C2.68 12.35 1.36 10.7 0 9 C-0.33 8.67 -0.66 8.34 -1 8 C-0.82364548 5.30917128 -0.38164079 2.67148554 0 0 Z " fill="#9FC86D" transform="translate(28,38)"/>
<path d="M0 0 C-4.33845557 1.16989066 -8.68002522 2.32715234 -13.02490234 3.47290039 C-14.50205646 3.8643122 -15.97830936 4.25914191 -17.45361328 4.6574707 C-19.57616321 5.22991599 -21.70166611 5.7899323 -23.828125 6.34765625 C-24.48556702 6.52780777 -25.14300903 6.70795929 -25.82037354 6.89356995 C-29.19505278 7.76528995 -31.69288007 8.28569751 -35 7 C-30.58340702 5.85388251 -26.16671297 4.70815499 -21.75 3.5625 C-19.86861328 3.07426758 -19.86861328 3.07426758 -17.94921875 2.57617188 C-16.14130859 2.10727539 -16.14130859 2.10727539 -14.296875 1.62890625 C-13.18666992 1.34088135 -12.07646484 1.05285645 -10.93261719 0.75610352 C-9.48097168 0.38183228 -9.48097168 0.38183228 -8 0 C-7.29262695 -0.21922119 -6.58525391 -0.43844238 -5.85644531 -0.66430664 C-3.63622408 -1.0657801 -2.12909708 -0.68435263 0 0 Z " fill="#B1AEAA" transform="translate(174,64)"/>
<path d="M0 0 C3.81684226 1.55500981 6.19195732 4.03595495 9 7 C8.67 7.99 8.34 8.98 8 10 C6.125 9.6875 6.125 9.6875 4 9 C3.34 8.01 2.68 7.02 2 6 C1.34 6 0.68 6 0 6 C-0.38218767 4.34385343 -0.71395102 2.67542976 -1 1 C-0.67 0.67 -0.34 0.34 0 0 Z " fill="#E3CFB9" transform="translate(111,53)"/>
<path d="M0 0 C6.7281627 -0.22262303 12.53991163 0.04978464 19 2 C17 4 17 4 14 4.25 C9.23783873 4.12918407 4.63139886 3.04369552 0 2 C0 1.34 0 0.68 0 0 Z " fill="#8ABC52" transform="translate(64,12)"/>
<path d="M0 0 C7.82660622 0.57871092 15.4684724 1.66129101 23.1875 3.0625 C24.23486328 3.24876953 25.28222656 3.43503906 26.36132812 3.62695312 C28.90831773 4.08052662 31.45448099 4.53825768 34 5 C34 5.33 34 5.66 34 6 C22.43686679 5.57094125 11.30865196 3.30792089 0 1 C0 0.67 0 0.34 0 0 Z " fill="#B2B0AE" transform="translate(136,91)"/>
<path d="M0 0 C1.46109063 0.25554054 2.91888096 0.53000372 4.375 0.8125 C5.59316406 1.03873047 5.59316406 1.03873047 6.8359375 1.26953125 C9 2 9 2 11 5 C9.20906809 5.08086147 7.41710372 5.13912702 5.625 5.1875 C4.12839844 5.23970703 4.12839844 5.23970703 2.6015625 5.29296875 C1.74304687 5.19628906 0.88453125 5.09960938 0 5 C-0.66 4.01 -1.32 3.02 -2 2 C-1.34 2 -0.68 2 0 2 C0 1.34 0 0.68 0 0 Z " fill="#885D33" transform="translate(54,98)"/>
<path d="M0 0 C-0.35494045 2.62655933 -0.72461964 4.57968261 -2.1875 6.8125 C-4.79361661 8.51995571 -6.9599355 8.20267097 -10 8 C-9.25 6.0625 -9.25 6.0625 -8 4 C-5.875 3.25 -5.875 3.25 -4 3 C-4 2.34 -4 1.68 -4 1 C-2 0 -2 0 0 0 Z " fill="#F5F3ED" transform="translate(108,77)"/>
<path d="M0 0 C0.99 0.66 1.98 1.32 3 2 C2.34 2 1.68 2 1 2 C1 2.99 1 3.98 1 5 C1.66 5 2.32 5 3 5 C2 8 2 8 0 9.0625 C-0.66 9.371875 -1.32 9.68125 -2 10 C-2.33 10.66 -2.66 11.32 -3 12 C-6.3 12 -9.6 12 -13 12 C-13 11.67 -13 11.34 -13 11 C-10.03 11 -7.06 11 -4 11 C-3.34 9.68 -2.68 8.36 -2 7 C-2.33 6.67 -2.66 6.34 -3 6 C-3.33 5.01 -3.66 4.02 -4 3 C-3.34 3 -2.68 3 -2 3 C-1.34 2.01 -0.68 1.02 0 0 Z " fill="#E8BFA7" transform="translate(92,72)"/>
<path d="M0 0 C1.32 0.66 2.64 1.32 4 2 C0.49102731 6.18423892 -3.08060535 10.19588166 -7 14 C-7 12.02 -7 10.04 -7 8 C-6.01 8 -5.02 8 -4 8 C-3.67 6.68 -3.34 5.36 -3 4 C-2.34 4 -1.68 4 -1 4 C-0.67 2.68 -0.34 1.36 0 0 Z " fill="#6B9155" transform="translate(48,98)"/>
<path d="M0 0 C0.33 0.66 0.66 1.32 1 2 C1.66 2 2.32 2 3 2 C3.99 3.98 4.98 5.96 6 8 C4.5422647 8.335939 3.08378894 8.66866624 1.625 9 C0.40683594 9.2784375 0.40683594 9.2784375 -0.8359375 9.5625 C-3 10 -3 10 -5 10 C-5 8.02 -5 6.04 -5 4 C-1.535 5.485 -1.535 5.485 2 7 C2 6.01 2 5.02 2 4 C1.34 4 0.68 4 0 4 C0 2.68 0 1.36 0 0 Z " fill="#EF9C22" transform="translate(74,120)"/>
<path d="M0 0 C0.66 0.33 1.32 0.66 2 1 C-1 8.57142857 -1 8.57142857 -4 11 C-4.99 10.67 -5.98 10.34 -7 10 C-5.6062718 5.56541027 -3.39417765 3.12621626 0 0 Z " fill="#F4CF4A" transform="translate(58,111)"/>
<path d="M0 0 C0.33 0 0.66 0 1 0 C1 6.27 1 12.54 1 19 C-0.65 19 -2.3 19 -4 19 C-3.25 14.25 -3.25 14.25 -1 12 C-0.53603307 9.10776497 -0.53603307 9.10776497 -0.375 5.875 C-0.30023438 4.77929688 -0.22546875 3.68359375 -0.1484375 2.5546875 C-0.09945312 1.71164063 -0.05046875 0.86859375 0 0 Z " fill="#FACA30" transform="translate(49,144)"/>
<path d="M0 0 C0.66 1.32 1.32 2.64 2 4 C1.01 5.485 1.01 5.485 0 7 C-0.33 6.67 -0.66 6.34 -1 6 C-1.99 8.64 -2.98 11.28 -4 14 C-4.66 14 -5.32 14 -6 14 C-6 14.66 -6 15.32 -6 16 C-6.66 16 -7.32 16 -8 16 C-6.65678452 9.68688724 -3.75248411 5.20391664 0 0 Z " fill="#F4DA6D" transform="translate(46,125)"/>
<path d="M0 0 C2 1.625 2 1.625 4 4 C4.25 7.25 4.25 7.25 4 10 C1.36 10 -1.28 10 -4 10 C-3.67 9.01 -3.34 8.02 -3 7 C-1.35 7 0.3 7 2 7 C1.67 6.34 1.34 5.68 1 5 C0.01 4.67 -0.98 4.34 -2 4 C-2 3.01 -2 2.02 -2 1 C-1.34 0.67 -0.68 0.34 0 0 Z " fill="#DFC0A2" transform="translate(108,58)"/>
<path d="M0 0 C0.66 0.66 1.32 1.32 2 2 C1.9765625 4.3828125 1.9765625 4.3828125 1.625 7.125 C1.51414062 8.03507812 1.40328125 8.94515625 1.2890625 9.8828125 C1.19367187 10.58148438 1.09828125 11.28015625 1 12 C0.34 12 -0.32 12 -1 12 C-2.23921302 9.02588876 -3.30058404 6.14737182 -4 3 C-2.68 2.01 -1.36 1.02 0 0 Z " fill="#FABE0A" transform="translate(57,118)"/>
<path d="M0 0 C0 3.38023517 -0.87455622 5.83468937 -2 9 C-3.32 8.67 -4.64 8.34 -6 8 C-6 7.34 -6 6.68 -6 6 C-7.32 5.67 -8.64 5.34 -10 5 C-9.67 4.34 -9.34 3.68 -9 3 C-6.66752239 2.66073053 -4.33414529 2.32759934 -2 2 C-1.34 1.34 -0.68 0.68 0 0 Z " fill="#E49BA1" transform="translate(106,82)"/>
<path d="M0 0 C0 3.3 0 6.6 0 10 C-1.32 9.67 -2.64 9.34 -4 9 C-4 6.36 -4 3.72 -4 1 C-2 0 -2 0 0 0 Z " fill="#228FD0" transform="translate(17,239)"/>
<path d="M0 0 C0.66 0.33 1.32 0.66 2 1 C2.4140625 3.28515625 2.4140625 3.28515625 2.625 6.0625 C2.69976562 6.98160156 2.77453125 7.90070313 2.8515625 8.84765625 C2.90054688 9.55792969 2.94953125 10.26820312 3 11 C2.67 10.34 2.34 9.68 2 9 C1.01 9.495 1.01 9.495 0 10 C-0.69093896 12.57951874 -0.69093896 12.57951874 -1.125 15.5625 C-1.29257813 16.57441406 -1.46015625 17.58632812 -1.6328125 18.62890625 C-1.75398438 19.41136719 -1.87515625 20.19382812 -2 21 C-3.0635083 17.63355643 -3.00078718 14.81477017 -2.6875 11.3125 C-2.60886719 10.33925781 -2.53023438 9.36601563 -2.44921875 8.36328125 C-2.30097656 7.58339844 -2.15273437 6.80351563 -2 6 C-1.34 5.67 -0.68 5.34 0 5 C0 3.35 0 1.7 0 0 Z " fill="#EDB47E" transform="translate(94,107)"/>
<path d="M0 0 C3 1 3 1 4.1875 3.0625 C4.455625 3.701875 4.72375 4.34125 5 5 C3 7 3 7 -0.125 7.125 C-1.548125 7.063125 -1.548125 7.063125 -3 7 C-2.25 2.25 -2.25 2.25 0 0 Z " fill="#F7D357" transform="translate(50,120)"/>
<path d="M0 0 C0.33 0 0.66 0 1 0 C1 3.96 1 7.92 1 12 C-1 11 -3 10 -5 9 C-5 8.01 -5 7.02 -5 6 C-4.01 6 -3.02 6 -2 6 C-1.67 5.01 -1.34 4.02 -1 3 C-0.67 2.01 -0.34 1.02 0 0 Z " fill="#845930" transform="translate(62,75)"/>
<path d="M0 0 C0.33 0 0.66 0 1 0 C1 4.29 1 8.58 1 13 C0.67 12.34 0.34 11.68 0 11 C-0.99 10.67 -1.98 10.34 -3 10 C-3.33 8.35 -3.66 6.7 -4 5 C-3.34 5 -2.68 5 -2 5 C-1.34 3.35 -0.68 1.7 0 0 Z " fill="#ACD189" transform="translate(30,64)"/>
<path d="M0 0 C1.32 0.33 2.64 0.66 4 1 C4 1.66 4 2.32 4 3 C3.21625 3.0825 2.4325 3.165 1.625 3.25 C-1.14749104 3.72806339 -1.14749104 3.72806339 -2.3125 6.0625 C-2.539375 6.701875 -2.76625 7.34125 -3 8 C-5.31 7.67 -7.62 7.34 -10 7 C-10 5.68 -10 4.36 -10 3 C-9.34 3 -8.68 3 -8 3 C-8 3.66 -8 4.32 -8 5 C-7.34 5 -6.68 5 -6 5 C-6 5.66 -6 6.32 -6 7 C-3.72478134 4.83312509 -1.84205838 2.54379491 0 0 Z " fill="#969E5B" transform="translate(98,24)"/>
<path d="M0 0 C0.33 0 0.66 0 1 0 C1.36666667 7.33333333 1.36666667 7.33333333 -0.375 10.5 C-2 12 -2 12 -4 12 C-4 11.01 -4 10.02 -4 9 C-5.98 9 -7.96 9 -10 9 C-9.67 7.68 -9.34 6.36 -9 5 C-9 5.66 -9 6.32 -9 7 C-6.69 7 -4.38 7 -2 7 C-1.34 4.69 -0.68 2.38 0 0 Z " fill="#E8C4A4" transform="translate(115,115)"/>
<path d="M0 0 C2.64 0.33 5.28 0.66 8 1 C8.33 1.99 8.66 2.98 9 4 C5.42355152 5.2380014 2.66305234 4.74926071 -1 4 C-0.67 2.68 -0.34 1.36 0 0 Z " fill="#E39E90" transform="translate(80,74)"/>
<path d="M0 0 C0.99 0.33 1.98 0.66 3 1 C3 2.65 3 4.3 3 6 C3.66 6 4.32 6 5 6 C5.33 5.34 5.66 4.68 6 4 C6.33 5.98 6.66 7.96 7 10 C4.33246269 9.63206382 3.18001672 9.18001672 1.25 7.25 C-0.21079991 4.62056017 -0.24687966 2.9625559 0 0 Z " fill="#3A2A19" transform="translate(108,53)"/>
<path d="M0 0 C0.66 0 1.32 0 2 0 C1.32116957 3.11547441 0.25893098 5.85137721 -1.0625 8.75 C-1.60583984 9.94882813 -1.60583984 9.94882813 -2.16015625 11.171875 C-2.57587891 12.07679687 -2.57587891 12.07679687 -3 13 C-3.66 13 -4.32 13 -5 13 C-4.56744475 7.59305933 -3.41778487 4.24633878 0 0 Z " fill="#69A82D" transform="translate(42,72)"/>
<path d="M0 0 C-0.495 0.4125 -0.99 0.825 -1.5 1.25 C-3.43386092 3.12202338 -3.43386092 3.12202338 -3 7 C-6.63 6.34 -10.26 5.68 -14 5 C-14 4.01 -14 3.02 -14 2 C-13.67 2.66 -13.34 3.32 -13 4 C-10.52733235 3.65555119 -10.52733235 3.65555119 -8 3 C-7.67 2.34 -7.34 1.68 -7 1 C-4.01793274 -0.8886426 -3.49368922 -1.16456307 0 0 Z " fill="#5EA12B" transform="translate(56,22)"/>
<path d="M0 0 C2.97 0.495 2.97 0.495 6 1 C6.33 2.32 6.66 3.64 7 5 C4 5 4 5 2 4 C2 4.66 2 5.32 2 6 C1.34 6 0.68 6 0 6 C0 4.02 0 2.04 0 0 Z " fill="#5BABE2" transform="translate(17,239)"/>
<path d="M0 0 C7.26 0.33 14.52 0.66 22 1 C22 1.33 22 1.66 22 2 C11.11 2.495 11.11 2.495 0 3 C0 2.01 0 1.02 0 0 Z " fill="#CEC89E" transform="translate(32,192)"/>
<path d="M0 0 C0.99 0 1.98 0 3 0 C2.67 3.63 2.34 7.26 2 11 C1.01 11 0.02 11 -1 11 C-2.60080151 6.99799622 -1.29279692 3.95443764 0 0 Z " fill="#536550" transform="translate(24,109)"/>
<path d="M0 0 C0 0.66 0 1.32 0 2 C-1.2375 2.12375 -2.475 2.2475 -3.75 2.375 C-6.8762197 2.75746305 -9.28879237 3.30549523 -12 5 C-12 4.01 -12 3.02 -12 2 C-4.71428571 -1.57142857 -4.71428571 -1.57142857 0 0 Z " fill="#7F4C24" transform="translate(86,26)"/>
<path d="M0 0 C0.66 0 1.32 0 2 0 C1.44271087 3.34373475 0.64826111 6.03312999 -1 9 C-1.66 9 -2.32 9 -3 9 C-3.33 9.66 -3.66 10.32 -4 11 C-4.33 8.69 -4.66 6.38 -5 4 C-4.34 3.67 -3.68 3.34 -3 3 C-2.01 3.33 -1.02 3.66 0 4 C0 2.68 0 1.36 0 0 Z " fill="#C2DDCA" transform="translate(32,231)"/>
<path d="M0 0 C0.66 0.33 1.32 0.66 2 1 C-3.14285714 6.57142857 -3.14285714 6.57142857 -7 7 C-7 5.35 -7 3.7 -7 2 C-2.25 0.875 -2.25 0.875 0 2 C0 1.34 0 0.68 0 0 Z " fill="#62A72C" transform="translate(38,166)"/>
<path d="M0 0 C2.475 0.495 2.475 0.495 5 1 C5 1.66 5 2.32 5 3 C5.70125 2.505 6.4025 2.01 7.125 1.5 C10.37119719 -0.1936681 12.39340156 -0.25162315 16 0 C14.68 0.99 13.36 1.98 12 3 C12.33 3.66 12.66 4.32 13 5 C7.30702655 5.45543788 4.45738181 4.58764877 0 1 C0 0.67 0 0.34 0 0 Z " fill="#F2C114" transform="translate(40,160)"/>
<path d="M0 0 C1.32 0.33 2.64 0.66 4 1 C3.01 1.495 3.01 1.495 2 2 C2.33 3.65 2.66 5.3 3 7 C3.66 7 4.32 7 5 7 C4.67 8.32 4.34 9.64 4 11 C3.01 10.67 2.02 10.34 1 10 C-0.60725635 6.78548731 -0.05748185 3.56387464 0 0 Z " fill="#342816" transform="translate(91,62)"/>
<path d="M0 0 C0.66 0 1.32 0 2 0 C2 0.66 2 1.32 2 2 C2.66 2 3.32 2 4 2 C4.6875 4.75 4.6875 4.75 5 8 C3.5625 10.375 3.5625 10.375 2 12 C0.86235649 7.73383684 0 4.43513689 0 0 Z " fill="#589D4F" transform="translate(40,60)"/>
<path d="M0 0 C1.98 0.66 3.96 1.32 6 2 C6 2.99 6 3.98 6 5 C4.02 5.66 2.04 6.32 0 7 C0 4.69 0 2.38 0 0 Z " fill="#EBCDA8" transform="translate(97,40)"/>
<path d="M0 0 C2.14553377 3.21830065 2.29583868 4.26786507 2.3125 8 C2.32925781 8.86625 2.34601562 9.7325 2.36328125 10.625 C1.93703947 13.4116129 1.16168863 14.26608617 -1 16 C-1.11138159 10.54230189 -0.91657981 5.38490641 0 0 Z " fill="#A2CC80" transform="translate(32,53)"/>
<path d="M0 0 C0.33 0 0.66 0 1 0 C2.20568053 4.67201205 2.09382426 9.21496292 2 14 C0 12 0 12 -0.5 9.4375 C-0.665 8.633125 -0.83 7.82875 -1 7 C-1.66 6.67 -2.32 6.34 -3 6 C-2.01 4.02 -1.02 2.04 0 0 Z " fill="#7FB266" transform="translate(32,33)"/>
<path d="M0 0 C4.875 1.75 4.875 1.75 6 4 C5.34 4 4.68 4 4 4 C3.34 5.32 2.68 6.64 2 8 C1.01 7.34 0.02 6.68 -1 6 C-1.25 3.4375 -1.25 3.4375 -1 1 C-0.67 0.67 -0.34 0.34 0 0 Z " fill="#F0D0B1" transform="translate(53,88)"/>
<path d="M0 0 C0.66 0 1.32 0 2 0 C2.04898438 0.77085938 2.09796875 1.54171875 2.1484375 2.3359375 C2.22320312 3.33882813 2.29796875 4.34171875 2.375 5.375 C2.44460937 6.37273437 2.51421875 7.37046875 2.5859375 8.3984375 C2.76363964 11.15508879 2.76363964 11.15508879 5 13 C4.34 13.66 3.68 14.32 3 15 C3 14.34 3 13.68 3 13 C2.01 13 1.02 13 0 13 C0 8.71 0 4.42 0 0 Z " fill="#EBC3A1" transform="translate(96,101)"/>
<path d="M0 0 C2.125 0.375 2.125 0.375 4 1 C2.68 3.31 1.36 5.62 0 8 C-0.99 7.01 -1.98 6.02 -3 5 C-2 2 -2 2 0 0 Z " fill="#EDCEB1" transform="translate(130,86)"/>
<path d="M0 0 C0.94875 0.04125 1.8975 0.0825 2.875 0.125 C3.125 2.375 3.125 2.375 2.875 5.125 C0.875 7.4375 0.875 7.4375 -1.125 9.125 C-1.455 8.135 -1.785 7.145 -2.125 6.125 C-1.465 6.125 -0.805 6.125 -0.125 6.125 C0.205 4.805 0.535 3.485 0.875 2.125 C0.25625 2.310625 -0.3625 2.49625 -1 2.6875 C-3.125 3.125 -3.125 3.125 -5.125 2.125 C-3.125 0.125 -3.125 0.125 0 0 Z " fill="#AF9272" transform="translate(111.125,17.875)"/>
<path d="M0 0 C0.33 0 0.66 0 1 0 C1.05447047 1.41623216 1.09300508 2.83308191 1.125 4.25 C1.14820312 5.03890625 1.17140625 5.8278125 1.1953125 6.640625 C0.9828378 9.20731941 0.28654105 10.7916067 -1 13 C-1.66 12.67 -2.32 12.34 -3 12 C-3.625 8.9375 -3.625 8.9375 -4 6 C-3.01 6 -2.02 6 -1 6 C-0.67 4.02 -0.34 2.04 0 0 Z " fill="#99C8E5" transform="translate(106,233)"/>
<path d="M0 0 C0.66 0 1.32 0 2 0 C2.02712153 1.916588 2.04645097 3.8332873 2.0625 5.75 C2.07410156 6.81734375 2.08570312 7.8846875 2.09765625 8.984375 C2.01510087 11.53368501 1.74617558 13.57933591 1 16 C0.34 16 -0.32 16 -1 16 C-2.125 12.25 -2.125 12.25 -1 10 C-0.34 10 0.32 10 1 10 C0.67 6.7 0.34 3.4 0 0 Z " fill="#E68C17" transform="translate(90,112)"/>
<path d="M0 0 C0.33 0.66 0.66 1.32 1 2 C2.98 1.34 4.96 0.68 7 0 C6.125 3.875 6.125 3.875 5 5 C3.00041636 5.04080783 0.99954746 5.04254356 -1 5 C-0.67 3.35 -0.34 1.7 0 0 Z " fill="#E6C6A3" transform="translate(92,48)"/>
<path d="M0 0 C0.66 0 1.32 0 2 0 C1.67 1.32 1.34 2.64 1 4 C0.34 4 -0.32 4 -1 4 C-0.773125 4.763125 -0.54625 5.52625 -0.3125 6.3125 C-0.209375 7.199375 -0.10625 8.08625 0 9 C-1.4375 10.8125 -1.4375 10.8125 -3 12 C-2.67 10.35 -2.34 8.7 -2 7 C-2.66 7 -3.32 7 -4 7 C-2.79618552 4.50638429 -1.54571278 2.31856917 0 0 Z " fill="#EB7C88" transform="translate(108,81)"/>
<path d="M0 0 C0.66 0.33 1.32 0.66 2 1 C2 2.66666667 2 4.33333333 2 6 C1.2575 5.79375 0.515 5.5875 -0.25 5.375 C-3.32330841 4.95591249 -4.42786866 5.38050989 -7 7 C-4.66666667 4.66666667 -2.33333333 2.33333333 0 0 Z " fill="#8DBC5C" transform="translate(45,20)"/>
<path d="M0 0 C0 0.99 0 1.98 0 3 C-1.32 3 -2.64 3 -4 3 C-3.01 3.99 -2.02 4.98 -1 6 C-3.64 5.67 -6.28 5.34 -9 5 C-4.32258065 0 -4.32258065 0 0 0 Z " fill="#86B751" transform="translate(56,15)"/>
<path d="M0 0 C1.65 0.33 3.3 0.66 5 1 C3.61990379 4.33523252 2.15049348 6.18607951 -1 8 C-1.99 7.67 -2.98 7.34 -4 7 C-3.34 7 -2.68 7 -2 7 C-2 6.34 -2 5.68 -2 5 C-1.34 4.67 -0.68 4.34 0 4 C0 2.68 0 1.36 0 0 Z " fill="#3993C9" transform="translate(23,240)"/>
<path d="M0 0 C0.66 0.66 1.32 1.32 2 2 C3.98356483 2.71408334 5.98315437 3.38617742 8 4 C7.01 4.33 6.02 4.66 5 5 C5 5.66 5 6.32 5 7 C3.35 6.67 1.7 6.34 0 6 C0 4.02 0 2.04 0 0 Z " fill="#338A2A" transform="translate(29,110)"/>
<path d="M0 0 C0 1.32 0 2.64 0 4 C-0.66 4 -1.32 4 -2 4 C-2.33 3.34 -2.66 2.68 -3 2 C-3.33 4.64 -3.66 7.28 -4 10 C-4.33 10 -4.66 10 -5 10 C-5.33 6.7 -5.66 3.4 -6 0 C-2 -1 -2 -1 0 0 Z " fill="#6DA568" transform="translate(63,177)"/>
<path d="M0 0 C5.875 4.625 5.875 4.625 7 8 C4.24542282 7.62005832 3.17979426 7.1926367 1.25 5.125 C0 3 0 3 0 0 Z " fill="#8CBB81" transform="translate(85,170)"/>
<path d="M0 0 C0.99 0 1.98 0 3 0 C3.66 1.65 4.32 3.3 5 5 C5.66 5 6.32 5 7 5 C7.33 5.99 7.66 6.98 8 8 C6.25 7.9375 6.25 7.9375 4 7 C2.40498463 4.75835678 1.25456982 2.46433357 0 0 Z " fill="#F5B156" transform="translate(64,112)"/>
<path d="M0 0 C1.65 0 3.3 0 5 0 C5.33 1.65 5.66 3.3 6 5 C4.35 5 2.7 5 1 5 C0.67 3.35 0.34 1.7 0 0 Z " fill="#E79219" transform="translate(82,106)"/>
<path d="M0 0 C0.99 0 1.98 0 3 0 C3.66 4.29 4.32 8.58 5 13 C4.01 12.67 3.02 12.34 2 12 C2 8.37 2 4.74 2 1 C1.34 0.67 0.68 0.34 0 0 Z " fill="#E3B78D" transform="translate(96,100)"/>
<path d="M0 0 C2.64 1.65 5.28 3.3 8 5 C4.86650268 6.04449911 4.01031744 5.93423645 1 5 C0.67 3.35 0.34 1.7 0 0 Z " fill="#9EC272" transform="translate(90,18)"/>
<path d="M0 0 C0 0.99 0 1.98 0 3 C0.061875 3.845625 0.12375 4.69125 0.1875 5.5625 C0.125625 6.366875 0.06375 7.17125 0 8 C-0.99 8.66 -1.98 9.32 -3 10 C-3.99928333 7.301935 -4.03624754 6.11989571 -3.1875 3.3125 C-2 1 -2 1 0 0 Z " fill="#D0C6A2" transform="translate(93,180)"/>
<path d="M0 0 C0.99 0.33 1.98 0.66 3 1 C2.67 2.98 2.34 4.96 2 7 C1.01 7.33 0.02 7.66 -1 8 C-1.125 2.25 -1.125 2.25 0 0 Z " fill="#E98E10" transform="translate(101,118)"/>
<path d="M0 0 C0.33 0.66 0.66 1.32 1 2 C0.0625 4.625 0.0625 4.625 -1 7 C-2.65 6.67 -4.3 6.34 -6 6 C-4.95125002 3.37812506 -4.35068687 2.20628639 -1.875 0.75 C-1.25625 0.5025 -0.6375 0.255 0 0 Z " fill="#4A6E46" transform="translate(31,102)"/>
<path d="M0 0 C2.475 0.99 2.475 0.99 5 2 C4.34 4.31 3.68 6.62 3 9 C2.34 9 1.68 9 1 9 C1.020625 8.071875 1.04125 7.14375 1.0625 6.1875 C1.15769604 2.97713989 1.15769604 2.97713989 0 0 Z " fill="#D8645A" transform="translate(96,90)"/>
<path d="M0 0 C0.66 0.33 1.32 0.66 2 1 C1.6875 4.375 1.6875 4.375 1 8 C0.01 8.66 -0.98 9.32 -2 10 C-2.33 8.35 -2.66 6.7 -3 5 C-2.34 5 -1.68 5 -1 5 C-0.67 4.01 -0.34 3.02 0 2 C-0.66 1.67 -1.32 1.34 -2 1 C-1.34 0.67 -0.68 0.34 0 0 Z " fill="#8B5B32" transform="translate(50,84)"/>
<path d="M0 0 C0.66 0 1.32 0 2 0 C2 0.99 2 1.98 2 3 C2.66 3 3.32 3 4 3 C3.50168276 6.68754757 2.89932357 8.60490662 0 11 C0.185625 9.9275 0.37125 8.855 0.5625 7.75 C0.9304568 4.59608454 1.04465343 2.90181508 0 0 Z " fill="#81B855" transform="translate(38,67)"/>
<path d="M0 0 C0.66 0.33 1.32 0.66 2 1 C-1.3 4.3 -4.6 7.6 -8 11 C-8.66 10.67 -9.32 10.34 -10 10 C-6.7 6.7 -3.4 3.4 0 0 Z " fill="#B2B2AF" transform="translate(143,50)"/>
<path d="M0 0 C0.66 0.66 1.32 1.32 2 2 C0.3125 4.0625 0.3125 4.0625 -2 6 C-4.75 5.75 -4.75 5.75 -7 5 C-6.67 4.34 -6.34 3.68 -6 3 C-4.33333333 2.66666667 -2.66666667 2.33333333 -1 2 C-0.67 1.34 -0.34 0.68 0 0 Z " fill="#93724C" transform="translate(118,29)"/>
<path d="M0 0 C1.32 0 2.64 0 4 0 C4 0.66 4 1.32 4 2 C3.030625 2.45375 2.06125 2.9075 1.0625 3.375 C-2.07079582 4.65786221 -2.07079582 4.65786221 -3 7 C-3.66 6.67 -4.32 6.34 -5 6 C-4.34 4.68 -3.68 3.36 -3 2 C-2.01 2 -1.02 2 0 2 C0 1.34 0 0.68 0 0 Z " fill="#764B1A" transform="translate(102,25)"/>
<path d="M0 0 C0.33 0 0.66 0 1 0 C1 4.62 1 9.24 1 14 C0.67 14 0.34 14 0 14 C-0.144375 12.9275 -0.28875 11.855 -0.4375 10.75 C-0.87348673 7.21662969 -0.87348673 7.21662969 -1.6875 4.75 C-2 3 -2 3 0 0 Z " fill="#93C074" transform="translate(31,38)"/>
<path d="M0 0 C0.66 0.33 1.32 0.66 2 1 C1.01 1.33 0.02 1.66 -1 2 C-2.20882096 4.00016466 -2.20882096 4.00016466 -3 6 C-4.32 5.67 -5.64 5.34 -7 5 C-5.68 4.34 -4.36 3.68 -3 3 C-3 2.34 -3 1.68 -3 1 C-2.01 0.67 -1.02 0.34 0 0 Z " fill="#F6D152" transform="translate(67,105)"/>
<path d="M0 0 C0.66 0.33 1.32 0.66 2 1 C1.45773019 4.79588866 -0.20127563 6.47211993 -3 9 C-3 7.02 -3 5.04 -3 3 C-2.01 3 -1.02 3 0 3 C0 2.01 0 1.02 0 0 Z " fill="#4B9148" transform="translate(44,103)"/>
<path d="M0 0 C3.125 0.375 3.125 0.375 6 1 C6 1.33 6 1.66 6 2 C4.576875 2.37125 4.576875 2.37125 3.125 2.75 C-0.08693191 3.6857077 -0.08693191 3.6857077 -1.375 6.125 C-1.58125 6.74375 -1.7875 7.3625 -2 8 C-2.125 5.125 -2.125 5.125 -2 2 C-1.34 1.34 -0.68 0.68 0 0 Z " fill="#5D3F20" transform="translate(87,56)"/>
<path d="M0 0 C0.66 0.33 1.32 0.66 2 1 C1.6875 3.875 1.6875 3.875 1 7 C0.01 7.66 -0.98 8.32 -2 9 C-1.34 6.03 -0.68 3.06 0 0 Z " fill="#EACAAA" transform="translate(29,210)"/>
<path d="M0 0 C0.66 0 1.32 0 2 0 C1.67 2.97 1.34 5.94 1 9 C0.01 8.67 -0.98 8.34 -2 8 C-1.125 1.125 -1.125 1.125 0 0 Z " fill="#EF9704" transform="translate(60,111)"/>
<path d="M0 0 C0.66 0.33 1.32 0.66 2 1 C1.25 5.75 1.25 5.75 -1 8 C-1.33 6.02 -1.66 4.04 -2 2 C-1.34 2 -0.68 2 0 2 C0 1.34 0 0.68 0 0 Z " fill="#7EA941" transform="translate(36,84)"/>
<path d="M0 0 C1.65 1.65 3.3 3.3 5 5 C3.35 5.33 1.7 5.66 0 6 C0 4.02 0 2.04 0 0 Z " fill="#77551F" transform="translate(88,20)"/>
<path d="M0 0 C0.33 1.32 0.66 2.64 1 4 C1.66 4 2.32 4 3 4 C3 4.66 3 5.32 3 6 C1.35 6 -0.3 6 -2 6 C-2.33 5.01 -2.66 4.02 -3 3 C-2.01 2.01 -1.02 1.02 0 0 Z " fill="#E9AC6E" transform="translate(90,128)"/>
<path d="M0 0 C3.21043882 1.38188453 5.04936365 2.92421903 7.25 5.625 C8.03117188 6.57246094 8.03117188 6.57246094 8.828125 7.5390625 C9.40820312 8.26222656 9.40820312 8.26222656 10 9 C6.78956118 7.61811547 4.95063635 6.07578097 2.75 3.375 C2.22921875 2.74335937 1.7084375 2.11171875 1.171875 1.4609375 C0.78515625 0.97882813 0.3984375 0.49671875 0 0 Z " fill="#B3B1AE" transform="translate(146,122)"/>
<path d="M0 0 C5.78461538 3.44615385 5.78461538 3.44615385 6.875 6.25 C6.936875 7.11625 6.936875 7.11625 7 8 C6.01 7.67 5.02 7.34 4 7 C4 6.34 4 5.68 4 5 C3.34 5 2.68 5 2 5 C1.34 3.35 0.68 1.7 0 0 Z " fill="#EDA919" transform="translate(67,112)"/>
<path d="M0 0 C2 2 2 2 2.125 5.125 C2.08375 6.07375 2.0425 7.0225 2 8 C-1 6 -1 6 -1.6875 3.375 C-1.790625 2.59125 -1.89375 1.8075 -2 1 C-1.34 0.67 -0.68 0.34 0 0 Z " fill="#3C7538" transform="translate(27,107)"/>
<path d="M0 0 C1.65 0 3.3 0 5 0 C4.34 0.66 3.68 1.32 3 2 C2.75787127 3.98128508 2.75787127 3.98128508 2.875 6.125 C2.936875 8.043125 2.936875 8.043125 3 10 C-0.00617269 6.99382731 0.40414684 4.17618402 0 0 Z " fill="#EBC8AC" transform="translate(121,101)"/>
<path d="M0 0 C2.4375 0.1875 2.4375 0.1875 5 1 C6.3125 3.0625 6.3125 3.0625 7 5 C5.68 4.67 4.36 4.34 3 4 C3 3.34 3 2.68 3 2 C1.68 1.67 0.36 1.34 -1 1 C-0.67 0.67 -0.34 0.34 0 0 Z " fill="#EA8D94" transform="translate(97,86)"/>
<path d="M0 0 C-2.68841859 2.25245881 -4.64641875 3.88213958 -8 5 C-8.33 4.34 -8.66 3.68 -9 3 C-5.92807025 0.26939578 -4.09590633 -0.34132553 0 0 Z " fill="#745419" transform="translate(83,28)"/>
<path d="M0 0 C0.99 0.99 1.98 1.98 3 3 C2.34 4.65 1.68 6.3 1 8 C0.34 7.67 -0.32 7.34 -1 7 C-0.67 4.69 -0.34 2.38 0 0 Z " fill="#FDDC91" transform="translate(36,148)"/>
<path d="M0 0 C0.66 0.33 1.32 0.66 2 1 C0.515 4.465 0.515 4.465 -1 8 C-1.66 7.01 -2.32 6.02 -3 5 C-2.01 3.35 -1.02 1.7 0 0 Z " fill="#F3CB38" transform="translate(58,111)"/>
<path d="M0 0 C2.375 -0.1875 2.375 -0.1875 5 0 C5.66 0.99 6.32 1.98 7 3 C4.69 3 2.38 3 0 3 C0 2.01 0 1.02 0 0 Z " fill="#74461A" transform="translate(58,100)"/>
<path d="M0 0 C2.5654594 2.5654594 2.54046087 4.47686668 3 8 C2.34 7.67 1.68 7.34 1 7 C1 6.01 1 5.02 1 4 C-0.32 4.33 -1.64 4.66 -3 5 C-2.67 4.01 -2.34 3.02 -2 2 C-1.34 2 -0.68 2 0 2 C0 1.34 0 0.68 0 0 Z " fill="#EEC2AC" transform="translate(108,92)"/>
<path d="M0 0 C0.66 1.32 1.32 2.64 2 4 C1.01 5.32 0.02 6.64 -1 8 C-1.66 7.67 -2.32 7.34 -3 7 C-2.01 4.69 -1.02 2.38 0 0 Z " fill="#765D25" transform="translate(42,76)"/>
<path d="M0 0 C0.99 0 1.98 0 3 0 C3 2.97 3 5.94 3 9 C2.67 7.68 2.34 6.36 2 5 C1.34 5 0.68 5 0 5 C0 3.35 0 1.7 0 0 Z " fill="#84582F" transform="translate(94,40)"/>
<path d="M0 0 C-0.99 0.495 -0.99 0.495 -2 1 C-2 1.99 -2 2.98 -2 4 C-3.65 3.67 -5.3 3.34 -7 3 C-7 2.34 -7 1.68 -7 1 C-3.375 -1.125 -3.375 -1.125 0 0 Z " fill="#784F17" transform="translate(90,32)"/>
<path d="M0 0 C1.32 0 2.64 0 4 0 C3.1875 2.4375 3.1875 2.4375 2 5 C1.01 5.33 0.02 5.66 -1 6 C-1.042721 4.33388095 -1.04063832 2.66617115 -1 1 C-0.67 0.67 -0.34 0.34 0 0 Z " fill="#77481B" transform="translate(109,19)"/>
<path d="M0 0 C4.2742558 1.5830577 6.26531794 4.50568404 9 8 C4.7257442 6.4169423 2.73468206 3.49431596 0 0 Z " fill="#B0ABA8" transform="translate(135,112)"/>
<path d="M0 0 C0.66 0.33 1.32 0.66 2 1 C0.02 2.98 -1.96 4.96 -4 7 C-4.66 6.67 -5.32 6.34 -6 6 C-4.02 4.02 -2.04 2.04 0 0 Z " fill="#B5B6B2" transform="translate(154,40)"/>
<path d="M0 0 C4 1 4 1 4 1 Z " fill="#D1D1D1" transform="translate(170,97)"/>
<path d="M0 0 C4 1 4 1 4 1 Z " fill="#D5D5D2" transform="translate(174,62)"/>
<path d="M0 0 C0.66 0.66 1.32 1.32 2 2 C1.34 2 0.68 2 0 2 C0 1.34 0 0.68 0 0 Z " fill="#C9C9C7" transform="translate(156,131)"/>
<path d="" fill="#F3FFD8" transform="translate(0,0)"/>
<path d="M0 0 C2 1 2 1 2 1 Z " fill="#F6FCDA" transform="translate(58,108)"/>
<path d="" fill="#FFF1DD" transform="translate(0,0)"/>
<path d="" fill="#FFF8B6" transform="translate(0,0)"/>
<path d="" fill="#F0EADE" transform="translate(0,0)"/>
<path d="" fill="#CBCBC9" transform="translate(0,0)"/>
<path d="" fill="#FFFFDA" transform="translate(0,0)"/>
<path d="" fill="#615C58" transform="translate(0,0)"/>
<path d="" fill="#6F6862" transform="translate(0,0)"/>
<path d="" fill="#FFFFDD" transform="translate(0,0)"/>
<path d="" fill="#F6FFD9" transform="translate(0,0)"/>
<path d="" fill="#979795" transform="translate(0,0)"/>
<path d="" fill="#979795" transform="translate(0,0)"/>
<path d="" fill="#A7A7A5" transform="translate(0,0)"/>
<path d="" fill="#C8C8C6" transform="translate(0,0)"/>
<path d="" fill="#CCCCCA" transform="translate(0,0)"/>
<path d="" fill="#DFDFDD" transform="translate(0,0)"/>
<path d="" fill="#DEDEE0" transform="translate(0,0)"/>
<path d="" fill="#DEDEDE" transform="translate(0,0)"/>
<path d="" fill="#D9D9D9" transform="translate(0,0)"/>
<path d="" fill="#46473F" transform="translate(0,0)"/>
<path d="" fill="#606159" transform="translate(0,0)"/>
<path d="" fill="#74756F" transform="translate(0,0)"/>
<path d="" fill="#DCDCDC" transform="translate(0,0)"/>
<path d="" fill="#F9FDD8" transform="translate(0,0)"/>
</svg>
